<?xml version="1.0" encoding="UTF-8"?>
<svg version="1.1" xmlns="http://www.w3.org/2000/svg" width="1800" height="1800">
<path d="M0 0 C594 0 1188 0 1800 0 C1800 594 1800 1188 1800 1800 C1206 1800 612 1800 0 1800 C0 1206 0 612 0 0 Z " fill="#000000" transform="translate(0,0)"/>
<path d="M0 0 C2 1 4 2 6 3 C6.28875 3.99 6.5775 4.98 6.875 6 C7.24625 6.99 7.6175 7.98 8 9 C9.98045559 9.66179847 9.98045559 9.66179847 12 10 C12.69937532 11.31647119 13.36729133 12.65022151 14 14 C14.99 14.33 15.98 14.66 17 15 C17 15.99 17 16.98 17 18 C17.66 18 18.32 18 19 18 C19 18.66 19 19.32 19 20 C20.32 20.33 21.64 20.66 23 21 C23 21.66 23 22.32 23 23 C23.99 23.33 24.98 23.66 26 24 C26 24.99 26 25.98 26 27 C26.66 27 27.32 27 28 27 C28 27.66 28 28.32 28 29 C29.32 29.33 30.64 29.66 32 30 C32 30.66 32 31.32 32 32 C32.99 32.33 33.98 32.66 35 33 C35 33.99 35 34.98 35 36 C35.66 36 36.32 36 37 36 C37 36.66 37 37.32 37 38 C38.32 38.33 39.64 38.66 41 39 C41 39.66 41 40.32 41 41 C41.99 41.33 42.98 41.66 44 42 C44 42.99 44 43.98 44 45 C44.66 45 45.32 45 46 45 C46 45.66 46 46.32 46 47 C46.86625 47.1546875 46.86625 47.1546875 47.75 47.3125 C52.64030087 48.8067586 54.5344846 51.71214713 57 56 C57.8353125 56.8353125 57.8353125 56.8353125 58.6875 57.6875 C59.120625 58.120625 59.55375 58.55375 60 59 C60 59.66 60 60.32 60 61 C60.66 61 61.32 61 62 61 C62 61.66 62 62.32 62 63 C62.66 63 63.32 63 64 63 C64 63.66 64 64.32 64 65 C64.5775 65.103125 65.155 65.20625 65.75 65.3125 C70.64030087 66.8067586 72.5344846 69.71214713 75 74 C75.556875 74.556875 76.11375 75.11375 76.6875 75.6875 C77.3371875 76.3371875 77.3371875 76.3371875 78 77 C78 77.66 78 78.32 78 79 C78.66 79 79.32 79 80 79 C80 79.66 80 80.32 80 81 C80.66 81 81.32 81 82 81 C82 81.66 82 82.32 82 83 C82.5775 83.103125 83.155 83.20625 83.75 83.3125 C88.64030087 84.8067586 90.5344846 87.71214713 93 92 C93.556875 92.556875 94.11375 93.11375 94.6875 93.6875 C95.3371875 94.3371875 95.3371875 94.3371875 96 95 C96 95.66 96 96.32 96 97 C96.66 97 97.32 97 98 97 C98 97.66 98 98.32 98 99 C98.66 99 99.32 99 100 99 C100 99.66 100 100.32 100 101 C100.5775 101.103125 101.155 101.20625 101.75 101.3125 C106.64030087 102.8067586 108.5344846 105.71214713 111 110 C111.556875 110.556875 112.11375 111.11375 112.6875 111.6875 C113.3371875 112.3371875 113.3371875 112.3371875 114 113 C114 113.66 114 114.32 114 115 C115.32 115.33 116.64 115.66 118 116 C118 116.99 118 117.98 118 119 C118.8353125 119.37125 118.8353125 119.37125 119.6875 119.75 C122.44160479 121.23870529 124.69174514 122.88409972 127 125 C127 125.99 127 126.98 127 128 C127.8353125 128.37125 127.8353125 128.37125 128.6875 128.75 C131.44160479 130.23870529 133.69174514 131.88409972 136 134 C136 134.99 136 135.98 136 137 C136.8353125 137.37125 136.8353125 137.37125 137.6875 137.75 C140.44160479 139.23870529 142.69174514 140.88409972 145 143 C145 143.99 145 144.98 145 146 C145.8353125 146.37125 145.8353125 146.37125 146.6875 146.75 C149.44160479 148.23870529 151.69174514 149.88409972 154 152 C154 152.99 154 153.98 154 155 C154.8353125 155.37125 154.8353125 155.37125 155.6875 155.75 C158.44160479 157.23870529 160.69174514 158.88409972 163 161 C163 161.99 163 162.98 163 164 C163.8353125 164.37125 163.8353125 164.37125 164.6875 164.75 C167.44160479 166.23870529 169.69174514 167.88409972 172 170 C172 170.99 172 171.98 172 173 C172.8353125 173.37125 172.8353125 173.37125 173.6875 173.75 C176.44160479 175.23870529 178.69174514 176.88409972 181 179 C181 179.99 181 180.98 181 182 C181.9590625 182.4021875 181.9590625 182.4021875 182.9375 182.8125 C185 184 185 184 186 187 C188.01508358 187.73323796 188.01508358 187.73323796 190 188 C190 188.99 190 189.98 190 191 C190.8353125 191.37125 190.8353125 191.37125 191.6875 191.75 C194.44160479 193.23870529 196.69174514 194.88409972 199 197 C199 197.99 199 198.98 199 200 C199.804375 200.3403125 199.804375 200.3403125 200.625 200.6875 C203 202 203 202 206.0625 204.5625 C208.80205688 207.13537799 208.80205688 207.13537799 212 208 C212 207.34 212 206.68 212 206 C212.66 206 213.32 206 214 206 C214.268125 205.360625 214.53625 204.72125 214.8125 204.0625 C216 202 216 202 219 201 C219 200.34 219 199.68 219 199 C219.66 199 220.32 199 221 199 C221 198.34 221 197.68 221 197 C221.66 197 222.32 197 223 197 C223.268125 196.360625 223.53625 195.72125 223.8125 195.0625 C225 193 225 193 228 192 C228 191.34 228 190.68 228 190 C228.66 190 229.32 190 230 190 C230 189.34 230 188.68 230 188 C230.66 188 231.32 188 232 188 C232.268125 187.360625 232.53625 186.72125 232.8125 186.0625 C234 184 234 184 237 183 C237 182.34 237 181.68 237 181 C237.66 181 238.32 181 239 181 C239 180.34 239 179.68 239 179 C239.66 179 240.32 179 241 179 C241.268125 178.360625 241.53625 177.72125 241.8125 177.0625 C243 175 243 175 246 174 C246 173.34 246 172.68 246 172 C246.66 172 247.32 172 248 172 C248 171.34 248 170.68 248 170 C248.66 170 249.32 170 250 170 C250.268125 169.360625 250.53625 168.72125 250.8125 168.0625 C252 166 252 166 255 165 C255 164.34 255 163.68 255 163 C255.66 163 256.32 163 257 163 C257 162.34 257 161.68 257 161 C257.66 161 258.32 161 259 161 C259.268125 160.360625 259.53625 159.72125 259.8125 159.0625 C261 157 261 157 264 156 C264 155.34 264 154.68 264 154 C264.66 154 265.32 154 266 154 C266 153.34 266 152.68 266 152 C266.66 152 267.32 152 268 152 C268.268125 151.360625 268.53625 150.72125 268.8125 150.0625 C270 148 270 148 273 147 C273 146.34 273 145.68 273 145 C273.66 145 274.32 145 275 145 C275 144.34 275 143.68 275 143 C275.66 143 276.32 143 277 143 C277.268125 142.360625 277.53625 141.72125 277.8125 141.0625 C279 139 279 139 282 138 C282 137.34 282 136.68 282 136 C282.66 136 283.32 136 284 136 C284 135.34 284 134.68 284 134 C284.66 134 285.32 134 286 134 C286 133.34 286 132.68 286 132 C286.66 132 287.32 132 288 132 C288.33 131.01 288.66 130.02 289 129 C289.66 129 290.32 129 291 129 C291 128.34 291 127.68 291 127 C291.66 127 292.32 127 293 127 C293 126.34 293 125.68 293 125 C293.66 125 294.32 125 295 125 C295.268125 124.360625 295.53625 123.72125 295.8125 123.0625 C297 121 297 121 300 120 C300 119.34 300 118.68 300 118 C300.66 118 301.32 118 302 118 C302 117.34 302 116.68 302 116 C302.66 116 303.32 116 304 116 C304 115.34 304 114.68 304 114 C304.66 114 305.32 114 306 114 C306.33 113.01 306.66 112.02 307 111 C307.66 111 308.32 111 309 111 C309 110.34 309 109.68 309 109 C309.66 109 310.32 109 311 109 C311 108.34 311 107.68 311 107 C311.66 107 312.32 107 313 107 C313 106.34 313 105.68 313 105 C313.66 105 314.32 105 315 105 C315.33 104.01 315.66 103.02 316 102 C316.66 102 317.32 102 318 102 C318 101.34 318 100.68 318 100 C318.66 100 319.32 100 320 100 C320 99.34 320 98.68 320 98 C320.66 98 321.32 98 322 98 C322 97.34 322 96.68 322 96 C322.66 96 323.32 96 324 96 C324.33 95.01 324.66 94.02 325 93 C326.485 92.505 326.485 92.505 328 92 C328.33 91.01 328.66 90.02 329 89 C329.66 89 330.32 89 331 89 C331.2475 88.38125 331.495 87.7625 331.75 87.125 C333.22770762 84.61289704 334.43955177 84.23892656 337 83 C337.33 82.01 337.66 81.02 338 80 C338.66 80 339.32 80 340 80 C340.268125 79.360625 340.53625 78.72125 340.8125 78.0625 C342 76 342 76 345 75 C345 74.34 345 73.68 345 73 C346.65071396 71.97388051 348.31970006 70.97691857 350 70 C352.40879165 67.93532144 352.96331553 67.11005341 354 64 C355.485 63.505 355.485 63.505 357 63 C357.33 62.01 357.66 61.02 358 60 C359.71944091 57.93667091 361.2710177 56.84513275 363.625 55.5 C366.29756313 54.16270693 366.29756313 54.16270693 367 51 C368.71944091 48.93667091 370.2710177 47.84513275 372.625 46.5 C375.29756313 45.16270693 375.29756313 45.16270693 376 42 C377.62121165 40.05454602 379.09993871 38.94327803 381.3125 37.6875 C384.18533035 35.88362978 386.36215431 33.9038715 388.75 31.5 C389.91789062 30.33984375 389.91789062 30.33984375 391.109375 29.15625 C393.19632617 27.05714121 393.19632617 27.05714121 394 24 C396.00121175 21.63493157 396.96799661 21.0106678 400 20 C400.33 19.01 400.66 18.02 401 17 C405.31818182 12.22727273 405.31818182 12.22727273 409 11 C409.33 10.01 409.66 9.02 410 8 C412.75142016 4.60118687 414.34763668 3.16871465 418.625 2.0625 C422 2 422 2 425 4 C425 4.66 425 5.32 425 6 C425.66 6 426.32 6 427 6 C427.33 7.65 427.66 9.3 428 11 C429.32 11.33 430.64 11.66 432 12 C432.33 13.65 432.66 15.3 433 17 C433.7425 16.87625 434.485 16.7525 435.25 16.625 C436.61125 16.810625 436.61125 16.810625 438 17 C440.125 19.9375 440.125 19.9375 442 23 C442.99 23.33 443.98 23.66 445 24 C445 24.66 445 25.32 445 26 C445.66 26 446.32 26 447 26 C447.9590625 27.4540625 447.9590625 27.4540625 448.9375 28.9375 C450.71061007 32.24255225 450.71061007 32.24255225 454 33 C454 33.66 454 34.32 454 35 C454.66 35 455.32 35 456 35 C456.9590625 36.4540625 456.9590625 36.4540625 457.9375 37.9375 C459.71061007 41.24255225 459.71061007 41.24255225 463 42 C463 42.66 463 43.32 463 44 C463.66 44 464.32 44 465 44 C465.33 44.99 465.66 45.98 466 47 C467.99371825 48.34270821 469.9934562 49.67653494 472 51 C472 51.66 472 52.32 472 53 C472.66 53 473.32 53 474 53 C474.33 53.99 474.66 54.98 475 56 C476.99371825 57.34270821 478.9934562 58.67653494 481 60 C481 60.66 481 61.32 481 62 C481.66 62 482.32 62 483 62 C483.33 62.99 483.66 63.98 484 65 C485.99371825 66.34270821 487.9934562 67.67653494 490 69 C490 69.66 490 70.32 490 71 C490.66 71 491.32 71 492 71 C492.33 71.99 492.66 72.98 493 74 C493.99 74.66 494.98 75.32 496 76 C496 76.99 496 77.98 496 79 C496.556875 79.04125 497.11375 79.0825 497.6875 79.125 C501.15605198 80.43742507 502.69850982 83.16739671 505 86 C505.99 86.33 506.98 86.66 508 87 C508 87.66 508 88.32 508 89 C508.66 89 509.32 89 510 89 C510.66 90.98 511.32 92.96 512 95 C512.66 95 513.32 95 514 95 C514 95.66 514 96.32 514 97 C514.556875 97.04125 515.11375 97.0825 515.6875 97.125 C519.15605198 98.43742507 520.69850982 101.16739671 523 104 C523.99 104.33 524.98 104.66 526 105 C526 105.66 526 106.32 526 107 C526.66 107 527.32 107 528 107 C528.33 107.99 528.66 108.98 529 110 C529.99 110.66 530.98 111.32 532 112 C532 112.99 532 113.98 532 115 C532.556875 115.04125 533.11375 115.0825 533.6875 115.125 C537.15605198 116.43742507 538.69850982 119.16739671 541 122 C541.99 122.33 542.98 122.66 544 123 C544 123.66 544 124.32 544 125 C544.66 125 545.32 125 546 125 C546.33 125.99 546.66 126.98 547 128 C547.99 128.66 548.98 129.32 550 130 C550 130.99 550 131.98 550 133 C550.53625 133.061875 551.0725 133.12375 551.625 133.1875 C555.17026157 134.40035264 557.2592392 136.44610926 560 139 C560 139.66 560 140.32 560 141 C560.66 141 561.32 141 562 141 C563.0064275 142.66279327 564.00585407 144.32983484 565 146 C565.99 146.66 566.98 147.32 568 148 C568 148.99 568 149.98 568 151 C568.53625 151.061875 569.0725 151.12375 569.625 151.1875 C573.17026157 152.40035264 575.2592392 154.44610926 578 157 C578 157.66 578 158.32 578 159 C578.66 159 579.32 159 580 159 C581.0064275 160.66279327 582.00585407 162.32983484 583 164 C583.99 164.66 584.98 165.32 586 166 C586 166.99 586 167.98 586 169 C586.53625 169.061875 587.0725 169.12375 587.625 169.1875 C591.17026157 170.40035264 593.2592392 172.44610926 596 175 C596 175.66 596 176.32 596 177 C596.66 177 597.32 177 598 177 C598.37125 177.680625 598.7425 178.36125 599.125 179.0625 C602.37543757 184.15485219 607.25163473 187.65230177 612 191.3125 C612.66 191.869375 613.32 192.42625 614 193 C614 193.66 614 194.32 614 195 C614.66 195 615.32 195 616 195 C616.37125 195.680625 616.7425 196.36125 617.125 197.0625 C620.37543757 202.15485219 625.25163473 205.65230177 630 209.3125 C630.66 209.869375 631.32 210.42625 632 211 C632 211.66 632 212.32 632 213 C632.66 213 633.32 213 634 213 C634.37125 213.680625 634.7425 214.36125 635.125 215.0625 C638.37543757 220.15485219 643.25163473 223.65230177 648 227.3125 C648.66 227.869375 649.32 228.42625 650 229 C650 229.66 650 230.32 650 231 C650.66 231 651.32 231 652 231 C652 231.66 652 232.32 652 233 C652.66 233 653.32 233 654 233 C654.33 233.99 654.66 234.98 655 236 C656.68902799 237.75013338 656.68902799 237.75013338 658.75 239.4375 C659.46671875 240.04851562 660.1834375 240.65953125 660.921875 241.2890625 C662.58912744 242.66172522 664.2895635 243.99403853 666 245.3125 C666.66 245.869375 667.32 246.42625 668 247 C668 247.66 668 248.32 668 249 C668.66 249 669.32 249 670 249 C670 249.66 670 250.32 670 251 C670.66 251 671.32 251 672 251 C672.33 251.99 672.66 252.98 673 254 C674.68902799 255.75013338 674.68902799 255.75013338 676.75 257.4375 C677.46671875 258.04851562 678.1834375 258.65953125 678.921875 259.2890625 C680.58912744 260.66172522 682.2895635 261.99403853 684 263.3125 C684.66 263.869375 685.32 264.42625 686 265 C686 265.66 686 266.32 686 267 C686.66 267 687.32 267 688 267 C688 267.66 688 268.32 688 269 C688.66 269 689.32 269 690 269 C690.33 269.99 690.66 270.98 691 272 C692.68902799 273.75013338 692.68902799 273.75013338 694.75 275.4375 C695.46671875 276.04851562 696.1834375 276.65953125 696.921875 277.2890625 C698.58912744 278.66172522 700.2895635 279.99403853 702 281.3125 C702.66 281.869375 703.32 282.42625 704 283 C704 283.66 704 284.32 704 285 C704.66 285 705.32 285 706 285 C706.33 285.99 706.66 286.98 707 288 C710.44164373 291.82697153 710.44164373 291.82697153 715 294 C715.33 294.99 715.66 295.98 716 297 C719.44164373 300.82697153 719.44164373 300.82697153 724 303 C724.33 303.99 724.66 304.98 725 306 C728.44164373 309.82697153 728.44164373 309.82697153 733 312 C733.33 312.99 733.66 313.98 734 315 C737.44164373 318.82697153 737.44164373 318.82697153 742 321 C742.33 321.99 742.66 322.98 743 324 C746.44164373 327.82697153 746.44164373 327.82697153 751 330 C751.33 330.99 751.66 331.98 752 333 C755.44164373 336.82697153 755.44164373 336.82697153 760 339 C760.33 339.99 760.66 340.98 761 342 C764.44164373 345.82697153 764.44164373 345.82697153 769 348 C769.33 348.99 769.66 349.98 770 351 C773.44164373 354.82697153 773.44164373 354.82697153 778 357 C778.33 357.99 778.66 358.98 779 360 C780.40808606 360.90519818 781.81845129 361.80712206 783.2421875 362.6875 C786.09990845 364.82126498 788.22658303 367.55209066 790.484375 370.29296875 C791.90713898 372.10853548 791.90713898 372.10853548 794 373 C794 373.66 794 374.32 794 375 C794.66 375 795.32 375 796 375 C796.33 375.99 796.66 376.98 797 378 C798.40808606 378.90519818 799.81845129 379.80712206 801.2421875 380.6875 C804.09990845 382.82126498 806.22658303 385.55209066 808.484375 388.29296875 C809.90713898 390.10853548 809.90713898 390.10853548 812 391 C812 391.66 812 392.32 812 393 C812.66 393 813.32 393 814 393 C814.33 393.99 814.66 394.98 815 396 C816.62168112 397.68215965 816.62168112 397.68215965 818.625 399.3125 C819.34816406 399.92867187 820.07132813 400.54484375 820.81640625 401.1796875 C822.15330922 402.29417191 823.49365296 403.40456484 824.83984375 404.5078125 C828.75501076 407.75713478 832.07608926 411.24796314 835.37890625 415.1171875 C838.30033734 418.51027132 841.38754296 421.50737151 844.875 424.3125 C848.0775152 426.92226174 850.66402201 429.94980533 853.34375 433.08203125 C856.28111118 436.48355092 859.37409442 439.49655421 862.875 442.3125 C866.0775152 444.92226174 868.66402201 447.94980533 871.34375 451.08203125 C874.28111118 454.48355092 877.37409442 457.49655421 880.875 460.3125 C884.0775152 462.92226174 886.66402201 465.94980533 889.34375 469.08203125 C892.28111118 472.48355092 895.37409442 475.49655421 898.875 478.3125 C902.0775152 480.92226174 904.66402201 483.94980533 907.34375 487.08203125 C910.32045383 490.52911045 913.46667091 493.56667011 917 496.4375 C920.14678692 499.1253805 922.51138719 501.70624775 925 505 C925 505.66 925 506.32 925 507 C925.66 507 926.32 507 927 507 C927 509.31 927 511.62 927 514 C866.94 514 806.88 514 745 514 C744.67 513.34 744.34 512.68 744 512 C743.01 511.67 742.02 511.34 741 511 C736 505.53488372 736 505.53488372 736 503 C735.1028125 502.5978125 735.1028125 502.5978125 734.1875 502.1875 C731.98180967 500.99012525 730.56416813 499.95521016 729 498 C729 497.01 729 496.02 729 495 C728.1028125 494.5978125 728.1028125 494.5978125 727.1875 494.1875 C725.01273336 493.00691239 723.73183488 491.73183488 722 490 C721.01 489.67 720.02 489.34 719 489 C717.2109375 487.29296875 717.2109375 487.29296875 715.375 485.1875 C714.76398438 484.50042969 714.15296875 483.81335937 713.5234375 483.10546875 C711.98819363 480.98368299 711.56480869 479.50905398 711 477 C709.11683841 475.89163577 709.11683841 475.89163577 707 475 C706 474 705 473 704 472 C703.01 471.67 702.02 471.34 701 471 C699.3515625 469.29296875 699.3515625 469.29296875 697.625 467.1875 C694.97272286 464.03968063 692.2375973 461.55083424 689 459 C689 458.34 689 457.68 689 457 C688.34 457 687.68 457 687 457 C686.67 456.01 686.34 455.02 686 454 C685.01 453.67 684.02 453.34 683 453 C681.2109375 451.29296875 681.2109375 451.29296875 679.375 449.1875 C678.76398438 448.50042969 678.15296875 447.81335937 677.5234375 447.10546875 C676 445 676 445 675.48046875 442.81640625 C675.32191406 442.21699219 675.16335938 441.61757812 675 441 C672.00384054 439.6954344 672.00384054 439.6954344 669 439 C669 438.34 669 437.68 669 437 C668.34 437 667.68 437 667 437 C667 436.34 667 435.68 667 435 C666.34 435 665.68 435 665 435 C663.30859375 433.390625 663.30859375 433.390625 661.4375 431.25 C660.81746094 430.55390625 660.19742187 429.8578125 659.55859375 429.140625 C658 427 658 427 657.4765625 424.8125 C657.31929687 424.214375 657.16203125 423.61625 657 423 C654.00384054 421.6954344 654.00384054 421.6954344 651 421 C651 420.34 651 419.68 651 419 C650.34 419 649.68 419 649 419 C649 418.34 649 417.68 649 417 C648.34 417 647.68 417 647 417 C645.44921875 415.390625 645.44921875 415.390625 643.6875 413.25 C641.69441586 410.89939355 639.91352052 408.93081642 637.5 407 C634.43156119 404.54524895 632.06663546 401.71378384 629.55078125 398.70703125 C628.09320225 396.89605411 628.09320225 396.89605411 626 396 C626 395.34 626 394.68 626 394 C625.34 394 624.68 394 624 394 C623.62875 393.319375 623.2575 392.63875 622.875 391.9375 C619.62456243 386.84514781 614.74836527 383.34769823 610 379.6875 C609.34 379.130625 608.68 378.57375 608 378 C608 377.34 608 376.68 608 376 C607.34 376 606.68 376 606 376 C606 375.34 606 374.68 606 374 C605.34 374 604.68 374 604 374 C602.30859375 372.35546875 602.30859375 372.35546875 600.4375 370.1875 C599.81746094 369.47980469 599.19742187 368.77210938 598.55859375 368.04296875 C597 366 597 366 596 363 C595.4225 362.71125 594.845 362.4225 594.25 362.125 C591.20774755 360.60387378 589.26157493 358.51286104 587 356 C587 355.34 587 354.68 587 354 C586.1646875 353.6596875 586.1646875 353.6596875 585.3125 353.3125 C582.33840412 351.62449964 580.27991135 349.53323483 578 347 C578 346.34 578 345.68 578 345 C577.1646875 344.6596875 577.1646875 344.6596875 576.3125 344.3125 C573.33840412 342.62449964 571.27991135 340.53323483 569 338 C569 337.34 569 336.68 569 336 C568.1646875 335.6596875 568.1646875 335.6596875 567.3125 335.3125 C564.33840412 333.62449964 562.27991135 331.53323483 560 329 C560 328.34 560 327.68 560 327 C559.1646875 326.6596875 559.1646875 326.6596875 558.3125 326.3125 C555.33840412 324.62449964 553.27991135 322.53323483 551 320 C551 319.34 551 318.68 551 318 C550.1646875 317.6596875 550.1646875 317.6596875 549.3125 317.3125 C546.33840412 315.62449964 544.27991135 313.53323483 542 311 C542 310.34 542 309.68 542 309 C541.1646875 308.6596875 541.1646875 308.6596875 540.3125 308.3125 C537.33840412 306.62449964 535.27991135 304.53323483 533 302 C533 301.34 533 300.68 533 300 C532.1646875 299.6596875 532.1646875 299.6596875 531.3125 299.3125 C528.33840412 297.62449964 526.27991135 295.53323483 524 293 C524 292.34 524 291.68 524 291 C523.1646875 290.6596875 523.1646875 290.6596875 522.3125 290.3125 C519.33840412 288.62449964 517.27991135 286.53323483 515 284 C515 283.34 515 282.68 515 282 C514.1646875 281.6596875 514.1646875 281.6596875 513.3125 281.3125 C510.33840412 279.62449964 508.27991135 277.53323483 506 275 C506 274.34 506 273.68 506 273 C505.1646875 272.6596875 505.1646875 272.6596875 504.3125 272.3125 C501.33840412 270.62449964 499.27991135 268.53323483 497 266 C497 265.34 497 264.68 497 264 C496.1646875 263.6596875 496.1646875 263.6596875 495.3125 263.3125 C492.33840412 261.62449964 490.27991135 259.53323483 488 257 C488 256.34 488 255.68 488 255 C487.1646875 254.6596875 487.1646875 254.6596875 486.3125 254.3125 C483.33840412 252.62449964 481.27991135 250.53323483 479 248 C479 247.34 479 246.68 479 246 C478.1646875 245.6596875 478.1646875 245.6596875 477.3125 245.3125 C474.33840412 243.62449964 472.27991135 241.53323483 470 239 C470 238.34 470 237.68 470 237 C469.1646875 236.6596875 469.1646875 236.6596875 468.3125 236.3125 C465.33840412 234.62449964 463.27991135 232.53323483 461 230 C461 229.34 461 228.68 461 228 C460.1646875 227.6596875 460.1646875 227.6596875 459.3125 227.3125 C456.33840412 225.62449964 454.27991135 223.53323483 452 221 C452 220.34 452 219.68 452 219 C451.1646875 218.6596875 451.1646875 218.6596875 450.3125 218.3125 C447.33840412 216.62449964 445.27991135 214.53323483 443 212 C443 211.34 443 210.68 443 210 C442.1646875 209.6596875 442.1646875 209.6596875 441.3125 209.3125 C438.33840412 207.62449964 436.27991135 205.53323483 434 203 C434 202.34 434 201.68 434 201 C433.1646875 200.6596875 433.1646875 200.6596875 432.3125 200.3125 C429.33840412 198.62449964 427.27991135 196.53323483 425 194 C425 193.34 425 192.68 425 192 C422.69564223 190.54910807 421.31123703 189.99201956 418.5625 190.0625 C414.54194117 191.53343616 412.33019144 194.40377027 409.6328125 197.640625 C406.31872368 201.61753158 402.82079929 205.01739281 398.8828125 208.37890625 C395.48972868 211.30033734 392.49262849 214.38754296 389.6875 217.875 C387.07773826 221.0775152 384.05019467 223.66402201 380.91796875 226.34375 C377.51644908 229.28111118 374.50344579 232.37409442 371.6875 235.875 C369.07773826 239.0775152 366.05019467 241.66402201 362.91796875 244.34375 C359.51644908 247.28111118 356.50344579 250.37409442 353.6875 253.875 C351.07933616 257.07555436 348.05561103 259.66165901 344.921875 262.3359375 C342.49027488 264.44134736 340.24227757 266.69543694 338 269 C337.29875 269.66 336.5975 270.32 335.875 271 C333.89495952 272.94656419 333.89495952 272.94656419 332.625 275.5 C330.58521541 278.63813015 328.09327565 279.93781623 325 282 C324.2575 283.2375 324.2575 283.2375 323.5 284.5 C321.57113601 287.71477331 319.09423753 288.93717498 316 291 C315.2575 292.2375 315.2575 292.2375 314.5 293.5 C312.57078906 296.71535156 310.13684065 298.02242654 307 300 C306.67 300.66 306.34 301.32 306 302 C305.34 302 304.68 302 304 302 C303.59201172 302.88365234 303.59201172 302.88365234 303.17578125 303.78515625 C300.24745579 309.30130421 295.37224644 313.62775356 291 318 C290.05613071 319.11966156 289.11905952 320.24507606 288.1875 321.375 C285.35723907 324.73046399 282.21642766 327.53329179 278.8828125 330.37890625 C275.48972868 333.30033734 272.49262849 336.38754296 269.6875 339.875 C267.07773826 343.0775152 264.05019467 345.66402201 260.91796875 348.34375 C257.51644908 351.28111118 254.50344579 354.37409442 251.6875 357.875 C249.07773826 361.0775152 246.05019467 363.66402201 242.91796875 366.34375 C239.51644908 369.28111118 236.50344579 372.37409442 233.6875 375.875 C231.07587813 379.07979782 228.04673069 381.66837677 224.91015625 384.34765625 C221.86915868 386.97821243 219.09581214 389.8558806 216.31640625 392.7578125 C215.71699219 393.37398437 215.11757813 393.99015625 214.5 394.625 C213.9534375 395.19476562 213.406875 395.76453125 212.84375 396.3515625 C211 398 211 398 208.68529892 399.318367 C205.78113329 401.13706239 203.61451281 403.13376824 201.19146729 405.55456543 C200.73462641 406.00828632 200.27778554 406.46200721 199.80710101 406.92947721 C198.28622081 408.44241618 196.77254715 409.96235951 195.25878906 411.48242188 C194.16650559 412.57199384 193.07379742 413.66114019 191.98069763 414.74989319 C189.01971893 417.70176679 186.06508627 420.65991652 183.11183262 423.61951637 C180.02031911 426.716097 176.92392486 429.80779094 173.82830811 432.90026855 C168.63307417 438.09186602 163.44206706 443.28766185 158.25341797 448.48583984 C152.25124865 454.49890454 146.24189277 460.50471486 140.22877526 466.50682974 C135.0666318 471.65990492 129.90838647 476.81685779 124.75339484 481.9770875 C121.67421383 485.05938925 118.59369099 488.14031726 115.50965118 491.21775818 C112.61263689 494.10900593 109.7205384 497.00508173 106.832201 499.90499687 C105.77007551 500.96977216 104.70623459 502.03283937 103.64058495 503.0940876 C102.18930876 504.53992003 100.74476069 505.99249668 99.30059814 507.44543457 C98.48946186 508.25732491 97.67832558 509.06921524 96.84260941 509.90570831 C94.79887679 511.95463772 94.79887679 511.95463772 94 515 C31.96 515 -30.08 515 -94 515 C-94 514.01 -94 513.02 -94 512 C-93.34 512 -92.68 512 -92 512 C-92 511.34 -92 510.68 -92 510 C-90.68 509.67 -89.36 509.34 -88 509 C-87.67 507.68 -87.34 506.36 -87 505 C-86.34 505 -85.68 505 -85 505 C-85 504.34 -85 503.68 -85 503 C-84.34 503 -83.68 503 -83 503 C-83 502.34 -83 501.68 -83 501 C-81.68 500.67 -80.36 500.34 -79 500 C-78.67 498.68 -78.34 497.36 -78 496 C-77.34 496 -76.68 496 -76 496 C-76 495.34 -76 494.68 -76 494 C-75.34 494 -74.68 494 -74 494 C-74 493.34 -74 492.68 -74 492 C-72.68 491.67 -71.36 491.34 -70 491 C-69.67 489.68 -69.34 488.36 -69 487 C-68.34 487 -67.68 487 -67 487 C-67 486.34 -67 485.68 -67 485 C-66.34 485 -65.68 485 -65 485 C-65 484.34 -65 483.68 -65 483 C-63.68 482.67 -62.36 482.34 -61 482 C-60.67 480.68 -60.34 479.36 -60 478 C-59.34 478 -58.68 478 -58 478 C-58 477.34 -58 476.68 -58 476 C-57.34 476 -56.68 476 -56 476 C-56 475.34 -56 474.68 -56 474 C-54.68 473.67 -53.36 473.34 -52 473 C-51.67 471.68 -51.34 470.36 -51 469 C-50.34 469 -49.68 469 -49 469 C-49 468.34 -49 467.68 -49 467 C-48.34 467 -47.68 467 -47 467 C-47 466.34 -47 465.68 -47 465 C-45.68 464.67 -44.36 464.34 -43 464 C-42.67 462.68 -42.34 461.36 -42 460 C-41.34 460 -40.68 460 -40 460 C-40 459.34 -40 458.68 -40 458 C-39.34 458 -38.68 458 -38 458 C-38 457.34 -38 456.68 -38 456 C-37.34 456 -36.68 456 -36 456 C-35.67 455.01 -35.34 454.02 -35 453 C-34.34 453 -33.68 453 -33 453 C-33 452.34 -33 451.68 -33 451 C-32.34 451 -31.68 451 -31 451 C-31 450.34 -31 449.68 -31 449 C-30.34 449 -29.68 449 -29 449 C-29 448.34 -29 447.68 -29 447 C-28.34 447 -27.68 447 -27 447 C-26.67 446.01 -26.34 445.02 -26 444 C-25.34 444 -24.68 444 -24 444 C-24 443.34 -24 442.68 -24 442 C-23.34 442 -22.68 442 -22 442 C-22 441.34 -22 440.68 -22 440 C-21.34 440 -20.68 440 -20 440 C-20 439.34 -20 438.68 -20 438 C-19.34 438 -18.68 438 -18 438 C-17.67 437.01 -17.34 436.02 -17 435 C-16.34 435 -15.68 435 -15 435 C-15 434.34 -15 433.68 -15 433 C-14.34 433 -13.68 433 -13 433 C-13 432.34 -13 431.68 -13 431 C-12.34 431 -11.68 431 -11 431 C-11 430.34 -11 429.68 -11 429 C-10.34 429 -9.68 429 -9 429 C-8.67 428.01 -8.34 427.02 -8 426 C-7.34 426 -6.68 426 -6 426 C-6 425.34 -6 424.68 -6 424 C-5.34 424 -4.68 424 -4 424 C-4 423.34 -4 422.68 -4 422 C-3.34 422 -2.68 422 -2 422 C-2 421.34 -2 420.68 -2 420 C-1.34 420 -0.68 420 0 420 C0.33 419.01 0.66 418.02 1 417 C1.66 417 2.32 417 3 417 C3 416.34 3 415.68 3 415 C3.66 415 4.32 415 5 415 C5 414.34 5 413.68 5 413 C5.66 413 6.32 413 7 413 C7 412.34 7 411.68 7 411 C7.66 411 8.32 411 9 411 C9.33 410.01 9.66 409.02 10 408 C10.66 408 11.32 408 12 408 C12 407.34 12 406.68 12 406 C12.66 406 13.32 406 14 406 C14 405.34 14 404.68 14 404 C14.66 404 15.32 404 16 404 C16 403.34 16 402.68 16 402 C16.66 402 17.32 402 18 402 C18.33 401.01 18.66 400.02 19 399 C19.66 399 20.32 399 21 399 C21 398.34 21 397.68 21 397 C21.66 397 22.32 397 23 397 C23 396.34 23 395.68 23 395 C23.66 395 24.32 395 25 395 C25 394.34 25 393.68 25 393 C25.66 393 26.32 393 27 393 C27.33 392.01 27.66 391.02 28 390 C28.66 390 29.32 390 30 390 C30 389.34 30 388.68 30 388 C30.66 388 31.32 388 32 388 C32 387.34 32 386.68 32 386 C32.66 386 33.32 386 34 386 C34 385.34 34 384.68 34 384 C34.66 384 35.32 384 36 384 C36.33 383.01 36.66 382.02 37 381 C37.66 381 38.32 381 39 381 C39 380.34 39 379.68 39 379 C39.66 379 40.32 379 41 379 C41 378.34 41 377.68 41 377 C41.66 377 42.32 377 43 377 C43 376.34 43 375.68 43 375 C43.66 375 44.32 375 45 375 C45.33 374.01 45.66 373.02 46 372 C46.66 372 47.32 372 48 372 C48 371.34 48 370.68 48 370 C48.66 370 49.32 370 50 370 C50 369.34 50 368.68 50 368 C50.66 368 51.32 368 52 368 C52 367.34 52 366.68 52 366 C52.66 366 53.32 366 54 366 C54.33 365.01 54.66 364.02 55 363 C55.66 363 56.32 363 57 363 C57 362.34 57 361.68 57 361 C57.66 361 58.32 361 59 361 C59 360.34 59 359.68 59 359 C59.66 359 60.32 359 61 359 C61 358.34 61 357.68 61 357 C61.66 357 62.32 357 63 357 C63.33 356.01 63.66 355.02 64 354 C64.66 354 65.32 354 66 354 C66 353.34 66 352.68 66 352 C66.66 352 67.32 352 68 352 C68 351.34 68 350.68 68 350 C68.66 350 69.32 350 70 350 C70 349.34 70 348.68 70 348 C70.66 348 71.32 348 72 348 C72.33 347.01 72.66 346.02 73 345 C73.66 345 74.32 345 75 345 C75 344.34 75 343.68 75 343 C75.66 343 76.32 343 77 343 C77 342.34 77 341.68 77 341 C77.66 341 78.32 341 79 341 C79 340.34 79 339.68 79 339 C79.66 339 80.32 339 81 339 C81.33 338.01 81.66 337.02 82 336 C82.66 336 83.32 336 84 336 C84 335.34 84 334.68 84 334 C84.66 334 85.32 334 86 334 C86 333.34 86 332.68 86 332 C86.66 332 87.32 332 88 332 C88 331.34 88 330.68 88 330 C88.66 330 89.32 330 90 330 C90.33 329.01 90.66 328.02 91 327 C91.66 327 92.32 327 93 327 C93 326.34 93 325.68 93 325 C93.66 325 94.32 325 95 325 C95 324.34 95 323.68 95 323 C95.66 323 96.32 323 97 323 C97 322.34 97 321.68 97 321 C97.66 321 98.32 321 99 321 C99.33 320.01 99.66 319.02 100 318 C100.66 318 101.32 318 102 318 C102 317.34 102 316.68 102 316 C102.66 316 103.32 316 104 316 C104 315.34 104 314.68 104 314 C104.66 314 105.32 314 106 314 C106 313.34 106 312.68 106 312 C106.66 312 107.32 312 108 312 C108.33 311.01 108.66 310.02 109 309 C109.66 309 110.32 309 111 309 C111 308.34 111 307.68 111 307 C111.66 307 112.32 307 113 307 C113 306.34 113 305.68 113 305 C113.66 305 114.32 305 115 305 C113.04226338 301.51251488 110.9861906 298.73666503 108.16001892 295.91278076 C107.38468307 295.13325043 106.60934723 294.35372009 105.81051636 293.55056763 C104.96417633 292.70984711 104.1178363 291.86912659 103.24584961 291.00292969 C102.35129562 290.10647736 101.45674164 289.21002502 100.53507996 288.28640747 C98.08934651 285.83584094 95.63743233 283.39154677 93.18420482 280.94848537 C90.61670752 278.38978858 88.05450073 275.82580399 85.49159241 273.26251221 C81.19009917 268.96195437 76.88475663 264.6652812 72.5769043 260.37109375 C67.59353348 255.40347208 62.61543254 250.43061917 57.64029688 245.45475078 C52.85385988 240.66770403 48.06457478 235.88351798 43.27368355 231.10092926 C41.2342669 229.0650466 39.19570477 227.02831388 37.15778923 224.99092865 C34.31644064 222.15076863 31.47085852 219.31488815 28.62475586 216.47949219 C27.35220947 215.20626602 27.35220947 215.20626602 26.05395508 213.90731812 C24.89518105 212.75494156 24.89518105 212.75494156 23.71299744 211.57928467 C22.70394804 210.57274904 22.70394804 210.57274904 21.67451382 209.54587936 C20.06589907 207.91706951 20.06589907 207.91706951 18 207 C18 206.34 18 205.68 18 205 C17.34 205 16.68 205 16 205 C14.45017999 202.67526998 13.16328291 200.38099346 12.0625 197.8125 C10.70786803 195.50165723 9.39681682 195.1279138 7 194 C6.360625 193.278125 5.72125 192.55625 5.0625 191.8125 C3.14367524 189.70175607 3.14367524 189.70175607 0.5 190.125 C-0.7375 190.558125 -0.7375 190.558125 -2 191 C-3.11375 191.37125 -3.11375 191.37125 -4.25 191.75 C-4.8275 192.1625 -5.405 192.575 -6 193 C-6.12375 193.78375 -6.2475 194.5675 -6.375 195.375 C-7 198 -7 198 -9.9375 200.3125 C-13 202 -13 202 -15 202 C-15.04125 202.7425 -15.0825 203.485 -15.125 204.25 C-16.35892278 208.12804301 -18.52088315 209.08293561 -22 211 C-22.66 211 -23.32 211 -24 211 C-24.04125 211.7425 -24.0825 212.485 -24.125 213.25 C-25.35892278 217.12804301 -27.52088315 218.08293561 -31 220 C-31.66 220 -32.32 220 -33 220 C-33.04125 220.7425 -33.0825 221.485 -33.125 222.25 C-34.35892278 226.12804301 -36.52088315 227.08293561 -40 229 C-40.66 229 -41.32 229 -42 229 C-42.04125 229.7425 -42.0825 230.485 -42.125 231.25 C-43.35892278 235.12804301 -45.52088315 236.08293561 -49 238 C-49.66 238 -50.32 238 -51 238 C-51.04125 238.7425 -51.0825 239.485 -51.125 240.25 C-52.35892278 244.12804301 -54.52088315 245.08293561 -58 247 C-58.66 247 -59.32 247 -60 247 C-60.04125 247.7425 -60.0825 248.485 -60.125 249.25 C-61.35892278 253.12804301 -63.52088315 254.08293561 -67 256 C-67.66 256 -68.32 256 -69 256 C-69.3403125 256.8353125 -69.3403125 256.8353125 -69.6875 257.6875 C-71.37550036 260.66159588 -73.46676517 262.72008865 -76 265 C-76.66 265 -77.32 265 -78 265 C-78.3403125 265.8353125 -78.3403125 265.8353125 -78.6875 266.6875 C-80.37550036 269.66159588 -82.46676517 271.72008865 -85 274 C-85.66 274 -86.32 274 -87 274 C-87.3403125 274.8353125 -87.3403125 274.8353125 -87.6875 275.6875 C-89.37550036 278.66159588 -91.46676517 280.72008865 -94 283 C-94.66 283 -95.32 283 -96 283 C-96.3403125 283.8353125 -96.3403125 283.8353125 -96.6875 284.6875 C-98.37550036 287.66159588 -100.46676517 289.72008865 -103 292 C-103.66 292 -104.32 292 -105 292 C-105.3403125 292.8353125 -105.3403125 292.8353125 -105.6875 293.6875 C-107.37550036 296.66159588 -109.46676517 298.72008865 -112 301 C-112.66 301 -113.32 301 -114 301 C-114.08636719 301.74765625 -114.17273438 302.4953125 -114.26171875 303.265625 C-115.14527124 306.53804162 -116.24161942 307.5940853 -118.8125 309.75 C-119.49957031 310.34296875 -120.18664062 310.9359375 -120.89453125 311.546875 C-123.00436262 313.00301094 -124.5449187 313.42608489 -127 314 C-127.69937532 315.31647119 -128.36729133 316.65022151 -129 318 C-129.99 318.33 -130.98 318.66 -132 319 C-132.165 319.66 -132.33 320.32 -132.5 321 C-132.665 321.66 -132.83 322.32 -133 323 C-133.99 323.33 -134.98 323.66 -136 324 C-137.02137457 325.65365406 -138.01612294 327.32376502 -139 329 C-141.7640361 332.65061372 -144.76863054 335.88270487 -148.28691101 338.81155396 C-155.10674545 344.72404979 -161.35925334 351.2460211 -167.72192383 357.64013672 C-169.20567046 359.12744365 -170.68965512 360.61451315 -172.17385864 362.10136414 C-175.35687176 365.29090357 -178.53836951 368.4819441 -181.71872902 371.67412949 C-186.74514565 376.71889005 -191.77595241 381.7592571 -196.80754089 386.79885864 C-211.11007286 401.12550757 -225.40663671 415.45810356 -239.69897461 429.79492188 C-247.60202286 437.72248829 -255.50863722 445.64648052 -263.41912097 453.56662762 C-268.42509685 458.57915593 -273.42652723 463.59616304 -278.42467368 468.61649776 C-281.52675318 471.73027457 -284.63297409 474.83989358 -287.74040604 477.94832802 C-289.18415523 479.3942314 -290.62617413 480.8418648 -292.06636238 482.29131508 C-294.026523 484.26359682 -295.99268894 486.22968675 -297.96052551 488.19430542 C-298.53386322 488.77415093 -299.10720093 489.35399645 -299.69791251 489.95141304 C-302.11502604 492.35309193 -303.72104073 493.90701358 -307 495 C-307.33 495.66 -307.66 496.32 -308 497 C-308.66 497 -309.32 497 -310 497 C-310.061875 497.598125 -310.12375 498.19625 -310.1875 498.8125 C-311.32282895 501.86915486 -313.21152775 502.46634026 -316 504 C-316.33 504.66 -316.66 505.32 -317 506 C-317.66 506 -318.32 506 -319 506 C-319.0825 506.5775 -319.165 507.155 -319.25 507.75 C-320.27010689 510.81032066 -321.44664412 512.01210331 -324 514 C-326.66656993 514.38458868 -328.91716118 514.52435698 -331.58026123 514.48101807 C-332.73082422 514.48614462 -332.73082422 514.48614462 -333.9046309 514.49137473 C-336.47683893 514.49796746 -339.04800519 514.47595542 -341.62011719 514.45410156 C-343.46304805 514.45297338 -345.30598071 514.45360637 -347.14891052 514.45587158 C-352.1548694 514.45702081 -357.1604461 514.43347772 -362.16631603 514.40557575 C-367.39668537 514.38059684 -372.62706313 514.37822287 -377.85748291 514.37347412 C-387.76328039 514.36103403 -397.66890162 514.32819838 -407.57462144 514.28807616 C-418.85137925 514.24339065 -430.12814541 514.22137951 -441.40496969 514.20129442 C-464.6034109 514.1594667 -487.80169558 514.0890945 -511 514 C-510.03798509 512.7122531 -509.07527707 511.42502397 -508.11227417 510.13801575 C-507.57624006 509.42113492 -507.04020596 508.70425409 -506.48792839 507.9656496 C-501.23184653 501.02202564 -495.05406701 494.92496015 -488.875 488.8125 C-487.69744141 487.64170898 -487.69744141 487.64170898 -486.49609375 486.44726562 C-485.03486838 484.99466469 -483.57260674 483.54310474 -482.10888672 482.09301758 C-479.73295077 479.73496029 -477.36657702 477.36743929 -475 475 C-473.77778631 473.77774277 -472.55554874 472.55550942 -471.33329362 471.33329362 C-470.64118398 470.64118398 -469.94907434 469.94907434 -469.23599169 469.23599169 C-405.52884163 405.52884163 -341.82169158 341.82169158 0 0 Z " fill="#FD5E21" transform="translate(687,641)"/>
<path d="M0 0 C2 1 4 2 6 3 C6.28875 3.99 6.5775 4.98 6.875 6 C7.24625 6.99 7.6175 7.98 8 9 C9.98045559 9.66179847 9.98045559 9.66179847 12 10 C12.69937532 11.31647119 13.36729133 12.65022151 14 14 C14.99 14.33 15.98 14.66 17 15 C17 15.99 17 16.98 17 18 C17.66 18 18.32 18 19 18 C19 18.66 19 19.32 19 20 C20.32 20.33 21.64 20.66 23 21 C23 21.66 23 22.32 23 23 C23.99 23.33 24.98 23.66 26 24 C26 24.99 26 25.98 26 27 C26.66 27 27.32 27 28 27 C28 27.66 28 28.32 28 29 C29.32 29.33 30.64 29.66 32 30 C32 30.66 32 31.32 32 32 C32.99 32.33 33.98 32.66 35 33 C35 33.99 35 34.98 35 36 C35.66 36 36.32 36 37 36 C37 36.66 37 37.32 37 38 C38.32 38.33 39.64 38.66 41 39 C41 39.66 41 40.32 41 41 C41.99 41.33 42.98 41.66 44 42 C44 42.99 44 43.98 44 45 C44.66 45 45.32 45 46 45 C46 45.66 46 46.32 46 47 C46.86625 47.1546875 46.86625 47.1546875 47.75 47.3125 C52.64030087 48.8067586 54.5344846 51.71214713 57 56 C57.8353125 56.8353125 57.8353125 56.8353125 58.6875 57.6875 C59.120625 58.120625 59.55375 58.55375 60 59 C60 59.66 60 60.32 60 61 C60.66 61 61.32 61 62 61 C62 61.66 62 62.32 62 63 C62.66 63 63.32 63 64 63 C64 63.66 64 64.32 64 65 C64.5775 65.103125 65.155 65.20625 65.75 65.3125 C70.64030087 66.8067586 72.5344846 69.71214713 75 74 C75.556875 74.556875 76.11375 75.11375 76.6875 75.6875 C77.3371875 76.3371875 77.3371875 76.3371875 78 77 C78 77.66 78 78.32 78 79 C78.66 79 79.32 79 80 79 C80 79.66 80 80.32 80 81 C80.66 81 81.32 81 82 81 C82 81.66 82 82.32 82 83 C82.5775 83.103125 83.155 83.20625 83.75 83.3125 C88.64030087 84.8067586 90.5344846 87.71214713 93 92 C93.556875 92.556875 94.11375 93.11375 94.6875 93.6875 C95.3371875 94.3371875 95.3371875 94.3371875 96 95 C96 95.66 96 96.32 96 97 C96.66 97 97.32 97 98 97 C98 97.66 98 98.32 98 99 C98.66 99 99.32 99 100 99 C100 99.66 100 100.32 100 101 C100.5775 101.103125 101.155 101.20625 101.75 101.3125 C106.64030087 102.8067586 108.5344846 105.71214713 111 110 C111.556875 110.556875 112.11375 111.11375 112.6875 111.6875 C113.3371875 112.3371875 113.3371875 112.3371875 114 113 C114 113.66 114 114.32 114 115 C115.32 115.33 116.64 115.66 118 116 C118 116.99 118 117.98 118 119 C118.8353125 119.37125 118.8353125 119.37125 119.6875 119.75 C122.44160479 121.23870529 124.69174514 122.88409972 127 125 C127 125.99 127 126.98 127 128 C127.8353125 128.37125 127.8353125 128.37125 128.6875 128.75 C131.44160479 130.23870529 133.69174514 131.88409972 136 134 C136 134.99 136 135.98 136 137 C136.8353125 137.37125 136.8353125 137.37125 137.6875 137.75 C140.44160479 139.23870529 142.69174514 140.88409972 145 143 C145 143.99 145 144.98 145 146 C145.8353125 146.37125 145.8353125 146.37125 146.6875 146.75 C149.44160479 148.23870529 151.69174514 149.88409972 154 152 C154 152.99 154 153.98 154 155 C154.8353125 155.37125 154.8353125 155.37125 155.6875 155.75 C158.44160479 157.23870529 160.69174514 158.88409972 163 161 C163 161.99 163 162.98 163 164 C163.8353125 164.37125 163.8353125 164.37125 164.6875 164.75 C167.44160479 166.23870529 169.69174514 167.88409972 172 170 C172 170.99 172 171.98 172 173 C172.8353125 173.37125 172.8353125 173.37125 173.6875 173.75 C176.44160479 175.23870529 178.69174514 176.88409972 181 179 C181 179.99 181 180.98 181 182 C181.9590625 182.4021875 181.9590625 182.4021875 182.9375 182.8125 C185 184 185 184 186 187 C188.01508358 187.73323796 188.01508358 187.73323796 190 188 C190 188.99 190 189.98 190 191 C190.8353125 191.37125 190.8353125 191.37125 191.6875 191.75 C194.44160479 193.23870529 196.69174514 194.88409972 199 197 C199 197.99 199 198.98 199 200 C199.804375 200.3403125 199.804375 200.3403125 200.625 200.6875 C204.74700263 202.96544882 208.46706157 205.40118471 210 210 C209.67 210.66 209.34 211.32 209 212 C208.01 212.33 207.02 212.66 206 213 C205.67 213.66 205.34 214.32 205 215 C204.34 215 203.68 215 203 215 C203 215.66 203 216.32 203 217 C202.34 217 201.68 217 201 217 C201 217.66 201 218.32 201 219 C199.625 220.625 199.625 220.625 198 222 C197.34 222 196.68 222 196 222 C196 222.66 196 223.32 196 224 C195.34 224 194.68 224 194 224 C194 224.66 194 225.32 194 226 C193.34 226 192.68 226 192 226 C192 226.66 192 227.32 192 228 C190.625 229.625 190.625 229.625 189 231 C188.34 231 187.68 231 187 231 C187 231.66 187 232.32 187 233 C186.34 233 185.68 233 185 233 C185 233.66 185 234.32 185 235 C184.34 235 183.68 235 183 235 C183 235.66 183 236.32 183 237 C181.625 238.625 181.625 238.625 180 240 C179.34 240 178.68 240 178 240 C178 240.66 178 241.32 178 242 C177.34 242 176.68 242 176 242 C176 242.66 176 243.32 176 244 C175.34 244 174.68 244 174 244 C174 244.66 174 245.32 174 246 C172.625 247.625 172.625 247.625 171 249 C170.34 249 169.68 249 169 249 C169 249.66 169 250.32 169 251 C168.34 251 167.68 251 167 251 C167 251.66 167 252.32 167 253 C166.34 253 165.68 253 165 253 C165 253.66 165 254.32 165 255 C163.625 256.625 163.625 256.625 162 258 C161.34 258 160.68 258 160 258 C160 258.66 160 259.32 160 260 C159.34 260 158.68 260 158 260 C158 260.66 158 261.32 158 262 C157.34 262 156.68 262 156 262 C156 262.66 156 263.32 156 264 C154.625 265.625 154.625 265.625 153 267 C152.34 267 151.68 267 151 267 C151 267.66 151 268.32 151 269 C150.34 269 149.68 269 149 269 C149 269.66 149 270.32 149 271 C148.34 271 147.68 271 147 271 C147 271.66 147 272.32 147 273 C145.625 274.625 145.625 274.625 144 276 C143.34 276 142.68 276 142 276 C142 276.66 142 277.32 142 278 C141.34 278 140.68 278 140 278 C140 278.66 140 279.32 140 280 C139.34 280 138.68 280 138 280 C138 280.66 138 281.32 138 282 C136.625 283.625 136.625 283.625 135 285 C134.34 285 133.68 285 133 285 C133 285.66 133 286.32 133 287 C132.34 287 131.68 287 131 287 C131 287.66 131 288.32 131 289 C130.34 289 129.68 289 129 289 C129 289.66 129 290.32 129 291 C127.625 292.625 127.625 292.625 126 294 C125.34 294 124.68 294 124 294 C124 294.66 124 295.32 124 296 C123.34 296 122.68 296 122 296 C122 296.66 122 297.32 122 298 C121.34 298 120.68 298 120 298 C119.67 299.32 119.34 300.64 119 302 C115.2464674 301.42788 113.52704336 299.90189697 110.87445068 297.24867249 C110.06119324 296.44242935 109.24793579 295.63618622 108.41003418 294.80551147 C107.52674438 293.91457794 106.64345459 293.02364441 105.73339844 292.10571289 C104.78763631 291.16237895 103.84122913 290.21969134 102.89422607 289.27760315 C100.32560132 286.71838545 97.76648603 284.14984921 95.20923138 281.57927632 C92.53409827 278.89283358 89.85126401 276.21410146 87.16949463 273.5342865 C82.6686431 269.03431787 78.1738114 264.52840476 73.68261719 260.01879883 C68.48454542 254.79954025 63.27767865 249.5891869 58.06588721 244.38363081 C53.05711805 239.38054817 48.05402605 234.37182732 43.05371857 229.36028862 C40.92308229 227.22499887 38.79056273 225.09161615 36.65654755 222.95970345 C33.68148045 219.9868627 30.71481621 217.00577475 27.74902344 214.02368164 C26.41194336 212.69031769 26.41194336 212.69031769 25.04785156 211.33001709 C24.24587341 210.52095413 23.44389526 209.71189117 22.61761475 208.87831116 C21.91487301 208.17351655 21.21213127 207.46872194 20.48809433 206.74256992 C19 205 19 205 19 203 C18.4225 202.9175 17.845 202.835 17.25 202.75 C14.3460664 201.78202213 12.96259396 200.31305716 11 198 C11 197.34 11 196.68 11 196 C10.13375 195.62875 10.13375 195.62875 9.25 195.25 C7 194 7 194 5.0625 191.8125 C3.14367524 189.70175607 3.14367524 189.70175607 0.5 190.125 C-0.7375 190.558125 -0.7375 190.558125 -2 191 C-3.11375 191.37125 -3.11375 191.37125 -4.25 191.75 C-4.8275 192.1625 -5.405 192.575 -6 193 C-6.12375 193.78375 -6.2475 194.5675 -6.375 195.375 C-7 198 -7 198 -9.9375 200.3125 C-13 202 -13 202 -15 202 C-15.04125 202.7425 -15.0825 203.485 -15.125 204.25 C-16.35892278 208.12804301 -18.52088315 209.08293561 -22 211 C-22.66 211 -23.32 211 -24 211 C-24.04125 211.7425 -24.0825 212.485 -24.125 213.25 C-25.35892278 217.12804301 -27.52088315 218.08293561 -31 220 C-31.66 220 -32.32 220 -33 220 C-33.04125 220.7425 -33.0825 221.485 -33.125 222.25 C-34.35892278 226.12804301 -36.52088315 227.08293561 -40 229 C-40.66 229 -41.32 229 -42 229 C-42.04125 229.7425 -42.0825 230.485 -42.125 231.25 C-43.35892278 235.12804301 -45.52088315 236.08293561 -49 238 C-49.66 238 -50.32 238 -51 238 C-51.04125 238.7425 -51.0825 239.485 -51.125 240.25 C-52.35892278 244.12804301 -54.52088315 245.08293561 -58 247 C-58.66 247 -59.32 247 -60 247 C-60.04125 247.7425 -60.0825 248.485 -60.125 249.25 C-61.35892278 253.12804301 -63.52088315 254.08293561 -67 256 C-67.66 256 -68.32 256 -69 256 C-69.3403125 256.8353125 -69.3403125 256.8353125 -69.6875 257.6875 C-71.37550036 260.66159588 -73.46676517 262.72008865 -76 265 C-76.66 265 -77.32 265 -78 265 C-78.3403125 265.8353125 -78.3403125 265.8353125 -78.6875 266.6875 C-80.37550036 269.66159588 -82.46676517 271.72008865 -85 274 C-85.66 274 -86.32 274 -87 274 C-87.3403125 274.8353125 -87.3403125 274.8353125 -87.6875 275.6875 C-89.37550036 278.66159588 -91.46676517 280.72008865 -94 283 C-94.66 283 -95.32 283 -96 283 C-96.3403125 283.8353125 -96.3403125 283.8353125 -96.6875 284.6875 C-98.37550036 287.66159588 -100.46676517 289.72008865 -103 292 C-103.66 292 -104.32 292 -105 292 C-105.3403125 292.8353125 -105.3403125 292.8353125 -105.6875 293.6875 C-107.37550036 296.66159588 -109.46676517 298.72008865 -112 301 C-112.66 301 -113.32 301 -114 301 C-114.08636719 301.74765625 -114.17273438 302.4953125 -114.26171875 303.265625 C-115.14527124 306.53804162 -116.24161942 307.5940853 -118.8125 309.75 C-119.49957031 310.34296875 -120.18664062 310.9359375 -120.89453125 311.546875 C-123.00436262 313.00301094 -124.5449187 313.42608489 -127 314 C-127.69937532 315.31647119 -128.36729133 316.65022151 -129 318 C-129.99 318.33 -130.98 318.66 -132 319 C-132.165 319.66 -132.33 320.32 -132.5 321 C-132.665 321.66 -132.83 322.32 -133 323 C-133.99 323.33 -134.98 323.66 -136 324 C-137.02137457 325.65365406 -138.01612294 327.32376502 -139 329 C-141.7640361 332.65061372 -144.76863054 335.88270487 -148.28691101 338.81155396 C-155.10674545 344.72404979 -161.35925334 351.2460211 -167.72192383 357.64013672 C-169.20567046 359.12744365 -170.68965512 360.61451315 -172.17385864 362.10136414 C-175.35687176 365.29090357 -178.53836951 368.4819441 -181.71872902 371.67412949 C-186.74514565 376.71889005 -191.77595241 381.7592571 -196.80754089 386.79885864 C-211.11007286 401.12550757 -225.40663671 415.45810356 -239.69897461 429.79492188 C-247.60202286 437.72248829 -255.50863722 445.64648052 -263.41912097 453.56662762 C-268.42509685 458.57915593 -273.42652723 463.59616304 -278.42467368 468.61649776 C-281.52675318 471.73027457 -284.63297409 474.83989358 -287.74040604 477.94832802 C-289.18415523 479.3942314 -290.62617413 480.8418648 -292.06636238 482.29131508 C-294.026523 484.26359682 -295.99268894 486.22968675 -297.96052551 488.19430542 C-298.53386322 488.77415093 -299.10720093 489.35399645 -299.69791251 489.95141304 C-302.11502604 492.35309193 -303.72104073 493.90701358 -307 495 C-307.33 495.66 -307.66 496.32 -308 497 C-308.66 497 -309.32 497 -310 497 C-310.061875 497.598125 -310.12375 498.19625 -310.1875 498.8125 C-311.32282895 501.86915486 -313.21152775 502.46634026 -316 504 C-316.33 504.66 -316.66 505.32 -317 506 C-317.66 506 -318.32 506 -319 506 C-319.0825 506.5775 -319.165 507.155 -319.25 507.75 C-320.27010689 510.81032066 -321.44664412 512.01210331 -324 514 C-326.66656993 514.38458868 -328.91716118 514.52435698 -331.58026123 514.48101807 C-332.73082422 514.48614462 -332.73082422 514.48614462 -333.9046309 514.49137473 C-336.47683893 514.49796746 -339.04800519 514.47595542 -341.62011719 514.45410156 C-343.46304805 514.45297338 -345.30598071 514.45360637 -347.14891052 514.45587158 C-352.1548694 514.45702081 -357.1604461 514.43347772 -362.16631603 514.40557575 C-367.39668537 514.38059684 -372.62706313 514.37822287 -377.85748291 514.37347412 C-387.76328039 514.36103403 -397.66890162 514.32819838 -407.57462144 514.28807616 C-418.85137925 514.24339065 -430.12814541 514.22137951 -441.40496969 514.20129442 C-464.6034109 514.1594667 -487.80169558 514.0890945 -511 514 C-510.03798509 512.7122531 -509.07527707 511.42502397 -508.11227417 510.13801575 C-507.57624006 509.42113492 -507.04020596 508.70425409 -506.48792839 507.9656496 C-501.23184653 501.02202564 -495.05406701 494.92496015 -488.875 488.8125 C-487.69744141 487.64170898 -487.69744141 487.64170898 -486.49609375 486.44726562 C-485.03486838 484.99466469 -483.57260674 483.54310474 -482.10888672 482.09301758 C-479.73295077 479.73496029 -477.36657702 477.36743929 -475 475 C-473.77778631 473.77774277 -472.55554874 472.55550942 -471.33329362 471.33329362 C-470.64118398 470.64118398 -469.94907434 469.94907434 -469.23599169 469.23599169 C-405.52884163 405.52884163 -341.82169158 341.82169158 0 0 Z " fill="#FDFDFD" transform="translate(687,641)"/>
<path d="M0 0 C4.75 0.875 4.75 0.875 7 2 C7.433125 2.7425 7.86625 3.485 8.3125 4.25 C11.07115757 8.74559011 14.89828998 11.92037405 18.875 15.3125 C22.38891932 18.34995568 25.40625163 21.62054772 28.4140625 25.15234375 C31.31937506 28.53710444 34.40103407 31.51822306 37.875 34.3125 C41.0775152 36.92226174 43.66402201 39.94980533 46.34375 43.08203125 C49.28111118 46.48355092 52.37409442 49.49655421 55.875 52.3125 C59.09385197 54.93249579 61.71107289 57.97124474 64.38671875 61.1328125 C65.94752593 63.01425783 65.94752593 63.01425783 67.70703125 64.5546875 C69 66 69 66 69 69 C69.556875 69.061875 70.11375 69.12375 70.6875 69.1875 C74.01529218 70.35672428 75.73133832 72.35322804 78 75 C78 75.99 78 76.98 78 78 C78.556875 78.061875 79.11375 78.12375 79.6875 78.1875 C83.01529218 79.35672428 84.73133832 81.35322804 87 84 C87 84.99 87 85.98 87 87 C87.7425 86.87625 88.485 86.7525 89.25 86.625 C90.1575 86.74875 91.065 86.8725 92 87 C94.125 89.9375 94.125 89.9375 96 93 C96.99 93.33 97.98 93.66 99 94 C99 94.66 99 95.32 99 96 C99.66 96 100.32 96 101 96 C101.639375 96.969375 102.27875 97.93875 102.9375 98.9375 C104.71061007 102.24255225 104.71061007 102.24255225 108 103 C108 103.66 108 104.32 108 105 C108.66 105 109.32 105 110 105 C110 105.66 110 106.32 110 107 C110.66 107 111.32 107 112 107 C112 107.66 112 108.32 112 109 C112.66 109 113.32 109 114 109 C115.65625 110.64453125 115.65625 110.64453125 117.5 112.8125 C118.1084375 113.52019531 118.716875 114.22789063 119.34375 114.95703125 C121 117 121 117 123 120 C123.99 120.33 124.98 120.66 126 121 C126 121.66 126 122.32 126 123 C126.66 123 127.32 123 128 123 C128 123.66 128 124.32 128 125 C128.66 125 129.32 125 130 125 C130 125.66 130 126.32 130 127 C130.66 127 131.32 127 132 127 C133.65625 128.64453125 133.65625 128.64453125 135.5 130.8125 C136.1084375 131.52019531 136.716875 132.22789062 137.34375 132.95703125 C139 135 139 135 141 138 C141.99 138.33 142.98 138.66 144 139 C144 139.66 144 140.32 144 141 C144.66 141 145.32 141 146 141 C146.639375 141.969375 147.27875 142.93875 147.9375 143.9375 C149.71061007 147.24255225 149.71061007 147.24255225 153 148 C153 148.66 153 149.32 153 150 C153.66 150 154.32 150 155 150 C155 150.66 155 151.32 155 152 C155.66 152 156.32 152 157 152 C157 152.66 157 153.32 157 154 C157.99 154.33 158.98 154.66 160 155 C160 155.66 160 156.32 160 157 C160.66 157 161.32 157 162 157 C162 157.66 162 158.32 162 159 C162.66 159 163.32 159 164 159 C164 159.66 164 160.32 164 161 C164.66 161 165.32 161 166 161 C166 161.66 166 162.32 166 163 C166.99 163.33 167.98 163.66 169 164 C169 164.66 169 165.32 169 166 C169.66 166 170.32 166 171 166 C171 166.66 171 167.32 171 168 C171.66 168 172.32 168 173 168 C173.66 169.98 174.32 171.96 175 174 C60.82 174 -53.36 174 -171 174 C-169.96700133 167.80200795 -169.54430209 166.78691841 -165 163 C-164.01 162.67 -163.02 162.34 -162 162 C-161.67 161.01 -161.34 160.02 -161 159 C-156.68181818 154.22727273 -156.68181818 154.22727273 -153 153 C-152.67 152.01 -152.34 151.02 -152 150 C-147.68181818 145.22727273 -147.68181818 145.22727273 -144 144 C-143.67 143.01 -143.34 142.02 -143 141 C-138.68181818 136.22727273 -138.68181818 136.22727273 -135 135 C-134.67 134.01 -134.34 133.02 -134 132 C-129.68181818 127.22727273 -129.68181818 127.22727273 -126 126 C-125.505 124.515 -125.505 124.515 -125 123 C-120.68181818 118.22727273 -120.68181818 118.22727273 -117 117 C-116.505 115.515 -116.505 115.515 -116 114 C-111.68181818 109.22727273 -111.68181818 109.22727273 -108 108 C-107.505 106.515 -107.505 106.515 -107 105 C-102.68181818 100.22727273 -102.68181818 100.22727273 -99 99 C-98.505 97.515 -98.505 97.515 -98 96 C-93.68181818 91.22727273 -93.68181818 91.22727273 -90 90 C-89.505 88.515 -89.505 88.515 -89 87 C-84.68181818 82.22727273 -84.68181818 82.22727273 -81 81 C-80.505 79.515 -80.505 79.515 -80 78 C-77.63316159 75.37017954 -75.53198811 73.29843235 -72.4375 71.5625 C-69.76176498 70.0772081 -69.76176498 70.0772081 -68 67 C-65.85855694 63.78783541 -64.23552564 62.94131538 -61 61 C-60.34 60.01 -59.68 59.02 -59 58 C-56.85855694 54.78783541 -55.23552564 53.94131538 -52 52 C-50.64837492 50.01231606 -49.31306433 48.0133653 -48 46 C-47.01 45.67 -46.02 45.34 -45 45 C-44.67 44.01 -44.34 43.02 -44 42 C-39.68181818 37.22727273 -39.68181818 37.22727273 -36 36 C-35.67 35.01 -35.34 34.02 -35 33 C-32 31 -32 31 -29 31 C-27.79371992 28.66785852 -26.8345262 26.50357861 -26 24 C-23 22 -23 22 -20 22 C-18.79371992 19.66785852 -17.8345262 17.50357861 -17 15 C-14 13 -14 13 -11 13 C-9.79371992 10.66785852 -8.8345262 8.50357861 -8 6 C-5 4 -5 4 -2 4 C-1.34 2.68 -0.68 1.36 0 0 Z " fill="#FD5E20" transform="translate(1105,981)"/>
<path d="M0 0 C1.98 0 3.96 0 6 0 C6 593.67 6 1187.34 6 1799 C4.02 1799 2.04 1799 0 1799 C0 1205.33 0 611.66 0 0 Z " fill="#0C1216" transform="translate(1794,1)"/>
<path d="M0 0 C2 1 4 2 6 3 C5.67 3.66 5.34 4.32 5 5 C4.1646875 4.6596875 4.1646875 4.6596875 3.3125 4.3125 C-0.0874967 3.85304099 -1.17632053 5.01869579 -4 7 C-6.75806687 9.47472176 -9.36057092 12.09600367 -11.9710207 14.72492504 C-13.17251054 15.92295335 -13.17251054 15.92295335 -14.3982729 17.14518425 C-17.09771046 19.83930196 -19.78991881 22.54053096 -22.48225403 25.241745 C-24.42836727 27.18809964 -26.37598887 29.13294246 -28.32354277 31.07785541 C-32.56560293 35.31576692 -36.80392938 39.55738409 -41.03984642 43.80143547 C-47.33853139 50.11218236 -53.64293324 56.41719465 -59.9485297 62.72103477 C-70.55498608 73.32486218 -81.15677753 83.93334207 -91.75592995 94.54446983 C-102.25236057 105.05272937 -112.75085209 115.55892283 -123.25211143 126.06235695 C-123.90473707 126.71512006 -124.55736271 127.36788318 -125.22976487 128.04042699 C-128.54405186 131.35539064 -131.8583758 134.67031734 -135.17271396 137.98522983 C-158.65584663 161.47256474 -182.13433769 184.96453448 -205.61010742 208.45922852 C-228.41830757 231.28579362 -251.2286047 254.1102599 -274.04174805 276.93188477 C-274.74479075 277.63519052 -275.44783345 278.33849628 -276.17218048 279.06311433 C-283.23234485 286.12591571 -290.29255192 293.18867441 -297.35279028 300.25140184 C-311.73565967 314.63934384 -326.11824405 329.02757072 -340.50065613 343.41596985 C-341.16195496 344.07754326 -341.82325379 344.73911667 -342.50459199 345.42073777 C-386.67450247 389.60905352 -430.83776827 433.80401019 -475 478 C-475.66 477.67 -476.32 477.34 -477 477 C-319.59 319.59 -162.18 162.18 0 0 Z " fill="#878787" transform="translate(687,641)"/>
<path d="M0 0 C0.66 0.33 1.32 0.66 2 1 C1.67 1.99 1.34 2.98 1 4 C115.18 4 229.36 4 347 4 C346.34 2.68 345.68 1.36 345 0 C346.32 0 347.64 0 349 0 C349.33 1.98 349.66 3.96 350 6 C233.84 6 117.68 6 -2 6 C-2 4.68 -2 3.36 -2 2 C-1.34 2 -0.68 2 0 2 C0 1.34 0 0.68 0 0 Z " fill="#501E0A" transform="translate(933,1151)"/>
<path d="M0 0 C4.75 0.875 4.75 0.875 7 2 C7 2.66 7 3.32 7 4 C4 4 4 4 2.3125 2.5 C1.879375 2.005 1.44625 1.51 1 1 C0.59361203 1.89360155 0.59361203 1.89360155 0.17901421 2.80525565 C-0.98637271 4.97463268 -2.13246255 6.38303901 -3.86422729 8.11590958 C-4.45218645 8.70908423 -5.04014561 9.30225888 -5.64592171 9.91340852 C-6.2924111 10.55543647 -6.93890049 11.19746441 -7.60498047 11.85894775 C-8.63448224 12.8931295 -8.63448224 12.8931295 -9.68478203 13.9482038 C-11.99083773 16.26225081 -14.30399335 18.56906697 -16.6171875 20.87597656 C-18.2698046 22.53130296 -19.92199575 24.1870547 -21.5737915 25.84320068 C-26.06484688 30.34338809 -30.56222302 34.83720892 -35.06101227 39.32966328 C-39.28492232 43.54903116 -43.50482726 47.77239844 -47.72499919 51.99550459 C-56.59049733 60.86670618 -65.46211634 69.73176624 -74.33583713 78.59474179 C-81.95588709 86.20585034 -89.57066972 93.82219575 -97.18164062 101.44238281 C-106.01575517 110.28718959 -114.85309113 119.12875686 -123.69562721 127.96514487 C-128.37808178 132.64447419 -133.05915744 137.32516139 -137.73675537 142.00934601 C-142.13164786 146.40999441 -146.5313629 150.80576241 -150.93492889 155.19773102 C-152.55484629 156.81499272 -154.17304347 158.43397946 -155.78943634 160.05476379 C-157.98672702 162.25747539 -160.19001266 164.4540036 -162.39501953 166.64898682 C-163.04150892 167.29993765 -163.68799831 167.95088849 -164.35407829 168.6215651 C-168.77169972 173 -168.77169972 173 -171 173 C-170.58565093 168.16592748 -168.62206046 166.10462326 -165 163 C-164.01 162.67 -163.02 162.34 -162 162 C-161.67 161.01 -161.34 160.02 -161 159 C-156.68181818 154.22727273 -156.68181818 154.22727273 -153 153 C-152.67 152.01 -152.34 151.02 -152 150 C-147.68181818 145.22727273 -147.68181818 145.22727273 -144 144 C-143.67 143.01 -143.34 142.02 -143 141 C-138.68181818 136.22727273 -138.68181818 136.22727273 -135 135 C-134.67 134.01 -134.34 133.02 -134 132 C-129.68181818 127.22727273 -129.68181818 127.22727273 -126 126 C-125.505 124.515 -125.505 124.515 -125 123 C-120.68181818 118.22727273 -120.68181818 118.22727273 -117 117 C-116.505 115.515 -116.505 115.515 -116 114 C-111.68181818 109.22727273 -111.68181818 109.22727273 -108 108 C-107.505 106.515 -107.505 106.515 -107 105 C-102.68181818 100.22727273 -102.68181818 100.22727273 -99 99 C-98.505 97.515 -98.505 97.515 -98 96 C-93.68181818 91.22727273 -93.68181818 91.22727273 -90 90 C-89.505 88.515 -89.505 88.515 -89 87 C-84.68181818 82.22727273 -84.68181818 82.22727273 -81 81 C-80.505 79.515 -80.505 79.515 -80 78 C-77.63316159 75.37017954 -75.53198811 73.29843235 -72.4375 71.5625 C-69.76176498 70.0772081 -69.76176498 70.0772081 -68 67 C-65.85855694 63.78783541 -64.23552564 62.94131538 -61 61 C-60.34 60.01 -59.68 59.02 -59 58 C-56.85855694 54.78783541 -55.23552564 53.94131538 -52 52 C-50.64837492 50.01231606 -49.31306433 48.0133653 -48 46 C-47.01 45.67 -46.02 45.34 -45 45 C-44.67 44.01 -44.34 43.02 -44 42 C-39.68181818 37.22727273 -39.68181818 37.22727273 -36 36 C-35.67 35.01 -35.34 34.02 -35 33 C-32 31 -32 31 -29 31 C-27.79371992 28.66785852 -26.8345262 26.50357861 -26 24 C-23 22 -23 22 -20 22 C-18.79371992 19.66785852 -17.8345262 17.50357861 -17 15 C-14 13 -14 13 -11 13 C-9.79371992 10.66785852 -8.8345262 8.50357861 -8 6 C-5 4 -5 4 -2 4 C-1.34 2.68 -0.68 1.36 0 0 Z " fill="#C94A1A" transform="translate(1105,981)"/>
<path d="M0 0 C0.66 0.33 1.32 0.66 2 1 C0.02 3.31 -1.96 5.62 -4 8 C87.08 8.495 87.08 8.495 180 9 C180 9.99 180 10.98 180 12 C118.29 12 56.58 12 -7 12 C-7 10.35 -7 8.7 -7 7 C-4.0625 4.3125 -4.0625 4.3125 -1 2 C-0.67 1.34 -0.34 0.68 0 0 Z " fill="#3B3B3B" transform="translate(181,1146)"/>
<path d="M0 0 C0 0.66 0 1.32 0 2 C-0.66 2 -1.32 2 -2 2 C-2 2.66 -2 3.32 -2 4 C58.72 4 119.44 4 182 4 C182 4.66 182 5.32 182 6 C119.96 6 57.92 6 -6 6 C-6 5.01 -6 4.02 -6 3 C-5.34 3 -4.68 3 -4 3 C-4 2.34 -4 1.68 -4 1 C-2 0 -2 0 0 0 Z " fill="#AF4116" transform="translate(599,1150)"/>
<path d="M0 0 C0.33 1.32 0.66 2.64 1 4 C-1.1875 6.8125 -1.1875 6.8125 -4 9 C-5.32 8.67 -6.64 8.34 -8 8 C-5.36 5.36 -2.72 2.72 0 0 Z " fill="#431908" transform="translate(789,1145)"/>
<path d="M0 0 C1.67542976 0.28604898 3.34385343 0.61781233 5 1 C3.68 1.33 2.36 1.66 1 2 C1 2.66 1 3.32 1 4 C0.01 4 -0.98 4 -2 4 C-2 4.66 -2 5.32 -2 6 C-2.66 6 -3.32 6 -4 6 C-4 6.99 -4 7.98 -4 9 C-5.32 8.67 -6.64 8.34 -8 8 C-6.625 6.5 -6.625 6.5 -5 5 C-4.34 5 -3.68 5 -3 5 C-2.690625 4.360625 -2.38125 3.72125 -2.0625 3.0625 C-1 1 -1 1 0 0 Z " fill="#551F0B" transform="translate(1104,830)"/>
<path d="M0 0 C0.66 0 1.32 0 2 0 C1.45700313 3.80097811 -0.07276772 5.57457897 -3 8 C-5.25 8.75 -5.25 8.75 -7 9 C-7 8.34 -7 7.68 -7 7 C-6.34 7 -5.68 7 -5 7 C-5 6.34 -5 5.68 -5 5 C-4.34 5 -3.68 5 -3 5 C-3 4.34 -3 3.68 -3 3 C-2.34 3 -1.68 3 -1 3 C-0.67 2.01 -0.34 1.02 0 0 Z " fill="#FF9469" transform="translate(814,932)"/>
<path d="M0 0 C0.66 0 1.32 0 2 0 C1.45700313 3.80097811 -0.07276772 5.57457897 -3 8 C-5.25 8.75 -5.25 8.75 -7 9 C-7 8.34 -7 7.68 -7 7 C-6.34 7 -5.68 7 -5 7 C-5 6.34 -5 5.68 -5 5 C-4.34 5 -3.68 5 -3 5 C-3 4.34 -3 3.68 -3 3 C-2.34 3 -1.68 3 -1 3 C-0.67 2.01 -0.34 1.02 0 0 Z " fill="#FF9469" transform="translate(823,923)"/>
<path d="M0 0 C0.66 0 1.32 0 2 0 C1.45700313 3.80097811 -0.07276772 5.57457897 -3 8 C-5.25 8.75 -5.25 8.75 -7 9 C-7 8.34 -7 7.68 -7 7 C-6.34 7 -5.68 7 -5 7 C-5 6.34 -5 5.68 -5 5 C-4.34 5 -3.68 5 -3 5 C-3 4.34 -3 3.68 -3 3 C-2.34 3 -1.68 3 -1 3 C-0.67 2.01 -0.34 1.02 0 0 Z " fill="#FF9469" transform="translate(832,914)"/>
<path d="M0 0 C0.8125 1.6875 0.8125 1.6875 1 4 C-1.1875 6.8125 -1.1875 6.8125 -4 9 C-6.3125 8.8125 -6.3125 8.8125 -8 8 C-6.625 6.5 -6.625 6.5 -5 5 C-4.34 5 -3.68 5 -3 5 C-2.690625 4.360625 -2.38125 3.72125 -2.0625 3.0625 C-1 1 -1 1 0 0 Z " fill="#5A210B" transform="translate(1050,884)"/>
<path d="M0 0 C0.8125 1.6875 0.8125 1.6875 1 4 C-1.1875 6.8125 -1.1875 6.8125 -4 9 C-6.3125 8.8125 -6.3125 8.8125 -8 8 C-6.625 6.5 -6.625 6.5 -5 5 C-4.34 5 -3.68 5 -3 5 C-2.690625 4.360625 -2.38125 3.72125 -2.0625 3.0625 C-1 1 -1 1 0 0 Z " fill="#5A210C" transform="translate(1059,875)"/>
<path d="M0 0 C0.66 0.33 1.32 0.66 2 1 C1.67 1.99 1.34 2.98 1 4 C0.34 4 -0.32 4 -1 4 C-1.2475 4.639375 -1.495 5.27875 -1.75 5.9375 C-3 8 -3 8 -5.125 8.75 C-6.053125 8.87375 -6.053125 8.87375 -7 9 C-7 8.34 -7 7.68 -7 7 C-6.34 7 -5.68 7 -5 7 C-5 6.34 -5 5.68 -5 5 C-4.34 5 -3.68 5 -3 5 C-2.67 4.01 -2.34 3.02 -2 2 C-1.34 2 -0.68 2 0 2 C0 1.34 0 0.68 0 0 Z " fill="#9F3B14" transform="translate(789,957)"/>
<path d="M0 0 C0.66 0.33 1.32 0.66 2 1 C1.67 1.99 1.34 2.98 1 4 C0.34 4 -0.32 4 -1 4 C-1.2475 4.639375 -1.495 5.27875 -1.75 5.9375 C-3 8 -3 8 -5.125 8.75 C-6.053125 8.87375 -6.053125 8.87375 -7 9 C-7 8.34 -7 7.68 -7 7 C-6.34 7 -5.68 7 -5 7 C-5 6.34 -5 5.68 -5 5 C-4.34 5 -3.68 5 -3 5 C-2.67 4.01 -2.34 3.02 -2 2 C-1.34 2 -0.68 2 0 2 C0 1.34 0 0.68 0 0 Z " fill="#9E3B14" transform="translate(798,948)"/>
<path d="M0 0 C0.33 1.32 0.66 2.64 1 4 C-0.65 4.66 -2.3 5.32 -4 6 C-4 6.99 -4 7.98 -4 9 C-5.32 8.67 -6.64 8.34 -8 8 C-6.625 6.5 -6.625 6.5 -5 5 C-4.34 5 -3.68 5 -3 5 C-2.690625 4.360625 -2.38125 3.72125 -2.0625 3.0625 C-1 1 -1 1 0 0 Z " fill="#5C220C" transform="translate(1032,902)"/>
<path d="M0 0 C0.33 1.32 0.66 2.64 1 4 C-0.65 4.66 -2.3 5.32 -4 6 C-4 6.99 -4 7.98 -4 9 C-5.32 8.67 -6.64 8.34 -8 8 C-6.625 6.5 -6.625 6.5 -5 5 C-4.34 5 -3.68 5 -3 5 C-2.690625 4.360625 -2.38125 3.72125 -2.0625 3.0625 C-1 1 -1 1 0 0 Z " fill="#5C220C" transform="translate(1041,893)"/>
<path d="M0 0 C0.66 0.33 1.32 0.66 2 1 C1.34 2.32 0.68 3.64 0 5 C-0.66 5 -1.32 5 -2 5 C-2 5.66 -2 6.32 -2 7 C-3.65 7.66 -5.3 8.32 -7 9 C-7 8.34 -7 7.68 -7 7 C-6.34 7 -5.68 7 -5 7 C-4.731875 6.360625 -4.46375 5.72125 -4.1875 5.0625 C-3 3 -3 3 0 2 C0 1.34 0 0.68 0 0 Z " fill="#9B3A14" transform="translate(915,831)"/>
<path d="M0 0 C0.66 0.33 1.32 0.66 2 1 C1.34 2.32 0.68 3.64 0 5 C-0.66 5 -1.32 5 -2 5 C-2 5.66 -2 6.32 -2 7 C-3.65 7.66 -5.3 8.32 -7 9 C-7 8.34 -7 7.68 -7 7 C-6.34 7 -5.68 7 -5 7 C-4.731875 6.360625 -4.46375 5.72125 -4.1875 5.0625 C-3 3 -3 3 0 2 C0 1.34 0 0.68 0 0 Z " fill="#9B3A13" transform="translate(924,822)"/>
<path d="M0 0 C0.66 0.33 1.32 0.66 2 1 C1.34 2.32 0.68 3.64 0 5 C-0.66 5 -1.32 5 -2 5 C-2 5.66 -2 6.32 -2 7 C-3.65 7.66 -5.3 8.32 -7 9 C-7 8.34 -7 7.68 -7 7 C-6.34 7 -5.68 7 -5 7 C-4.731875 6.360625 -4.46375 5.72125 -4.1875 5.0625 C-3 3 -3 3 0 2 C0 1.34 0 0.68 0 0 Z " fill="#9A3913" transform="translate(933,813)"/>
<path d="M0 0 C0.66 0.33 1.32 0.66 2 1 C1.34 2.32 0.68 3.64 0 5 C-0.66 5 -1.32 5 -2 5 C-2 5.66 -2 6.32 -2 7 C-3.65 7.66 -5.3 8.32 -7 9 C-7 8.34 -7 7.68 -7 7 C-6.34 7 -5.68 7 -5 7 C-4.731875 6.360625 -4.46375 5.72125 -4.1875 5.0625 C-3 3 -3 3 0 2 C0 1.34 0 0.68 0 0 Z " fill="#9A3913" transform="translate(942,804)"/>
<path d="M0 0 C0.66 0.33 1.32 0.66 2 1 C1.34 2.32 0.68 3.64 0 5 C-0.66 5 -1.32 5 -2 5 C-2 5.66 -2 6.32 -2 7 C-3.65 7.66 -5.3 8.32 -7 9 C-7 8.34 -7 7.68 -7 7 C-6.34 7 -5.68 7 -5 7 C-4.731875 6.360625 -4.46375 5.72125 -4.1875 5.0625 C-3 3 -3 3 0 2 C0 1.34 0 0.68 0 0 Z " fill="#993913" transform="translate(951,795)"/>
<path d="M0 0 C0.33 0.99 0.66 1.98 1 3 C-0.3125 4.5 -0.3125 4.5 -2 6 C-2.99 6 -3.98 6 -5 6 C-5.33 7.32 -5.66 8.64 -6 10 C-6.99 10 -7.98 10 -9 10 C-9 8 -9 8 -7.6875 6.4375 C-6 5 -6 5 -3 4 C-2.67 3.01 -2.34 2.02 -2 1 C-1.34 0.67 -0.68 0.34 0 0 Z " fill="#A93E15" transform="translate(1090,657)"/>
<path d="M0 0 C0.33 1.32 0.66 2.64 1 4 C0.360625 4.268125 -0.27875 4.53625 -0.9375 4.8125 C-3.33131686 5.88667752 -3.33131686 5.88667752 -4 9 C-5.32 8.67 -6.64 8.34 -8 8 C-5.36 5.36 -2.72 2.72 0 0 Z " fill="#57200B" transform="translate(816,1118)"/>
<path d="M0 0 C0.33 1.32 0.66 2.64 1 4 C0.360625 4.268125 -0.27875 4.53625 -0.9375 4.8125 C-3.33131686 5.88667752 -3.33131686 5.88667752 -4 9 C-5.32 8.67 -6.64 8.34 -8 8 C-5.36 5.36 -2.72 2.72 0 0 Z " fill="#58200B" transform="translate(834,1100)"/>
<path d="M0 0 C0.33 1.32 0.66 2.64 1 4 C0.360625 4.268125 -0.27875 4.53625 -0.9375 4.8125 C-3.33131686 5.88667752 -3.33131686 5.88667752 -4 9 C-5.32 8.67 -6.64 8.34 -8 8 C-5.36 5.36 -2.72 2.72 0 0 Z " fill="#59210B" transform="translate(843,1091)"/>
<path d="M0 0 C0.66 0.33 1.32 0.66 2 1 C1.67 1.99 1.34 2.98 1 4 C0.34 4 -0.32 4 -1 4 C-1 4.66 -1 5.32 -1 6 C-1.66 6 -2.32 6 -3 6 C-3 6.66 -3 7.32 -3 8 C-4.32 8.33 -5.64 8.66 -7 9 C-7 8.34 -7 7.68 -7 7 C-6.34 7 -5.68 7 -5 7 C-5 6.34 -5 5.68 -5 5 C-4.34 5 -3.68 5 -3 5 C-2.67 4.01 -2.34 3.02 -2 2 C-1.34 2 -0.68 2 0 2 C0 1.34 0 0.68 0 0 Z " fill="#A23C15" transform="translate(654,1092)"/>
<path d="M0 0 C0.33 1.32 0.66 2.64 1 4 C0.360625 4.268125 -0.27875 4.53625 -0.9375 4.8125 C-3.33131686 5.88667752 -3.33131686 5.88667752 -4 9 C-5.32 8.67 -6.64 8.34 -8 8 C-5.36 5.36 -2.72 2.72 0 0 Z " fill="#59210B" transform="translate(852,1082)"/>
<path d="M0 0 C0.66 0.33 1.32 0.66 2 1 C1.67 1.99 1.34 2.98 1 4 C0.34 4 -0.32 4 -1 4 C-1 4.66 -1 5.32 -1 6 C-1.66 6 -2.32 6 -3 6 C-3 6.66 -3 7.32 -3 8 C-4.32 8.33 -5.64 8.66 -7 9 C-7 8.34 -7 7.68 -7 7 C-6.34 7 -5.68 7 -5 7 C-5 6.34 -5 5.68 -5 5 C-4.34 5 -3.68 5 -3 5 C-2.67 4.01 -2.34 3.02 -2 2 C-1.34 2 -0.68 2 0 2 C0 1.34 0 0.68 0 0 Z " fill="#A13C14" transform="translate(663,1083)"/>
<path d="M0 0 C0.33 1.32 0.66 2.64 1 4 C0.360625 4.268125 -0.27875 4.53625 -0.9375 4.8125 C-3.33131686 5.88667752 -3.33131686 5.88667752 -4 9 C-5.32 8.67 -6.64 8.34 -8 8 C-5.36 5.36 -2.72 2.72 0 0 Z " fill="#5A210B" transform="translate(861,1073)"/>
<path d="M0 0 C0.66 0.33 1.32 0.66 2 1 C1.67 1.99 1.34 2.98 1 4 C0.34 4 -0.32 4 -1 4 C-1 4.66 -1 5.32 -1 6 C-1.66 6 -2.32 6 -3 6 C-3 6.66 -3 7.32 -3 8 C-4.32 8.33 -5.64 8.66 -7 9 C-7 8.34 -7 7.68 -7 7 C-6.34 7 -5.68 7 -5 7 C-5 6.34 -5 5.68 -5 5 C-4.34 5 -3.68 5 -3 5 C-2.67 4.01 -2.34 3.02 -2 2 C-1.34 2 -0.68 2 0 2 C0 1.34 0 0.68 0 0 Z " fill="#A13C14" transform="translate(672,1074)"/>
<path d="M0 0 C0.33 1.32 0.66 2.64 1 4 C0.360625 4.268125 -0.27875 4.53625 -0.9375 4.8125 C-3.33131686 5.88667752 -3.33131686 5.88667752 -4 9 C-5.32 8.67 -6.64 8.34 -8 8 C-5.36 5.36 -2.72 2.72 0 0 Z " fill="#5A210B" transform="translate(870,1064)"/>
<path d="M0 0 C0.66 0.33 1.32 0.66 2 1 C1.67 1.99 1.34 2.98 1 4 C0.34 4 -0.32 4 -1 4 C-1 4.66 -1 5.32 -1 6 C-1.66 6 -2.32 6 -3 6 C-3 6.66 -3 7.32 -3 8 C-4.32 8.33 -5.64 8.66 -7 9 C-7 8.34 -7 7.68 -7 7 C-6.34 7 -5.68 7 -5 7 C-5 6.34 -5 5.68 -5 5 C-4.34 5 -3.68 5 -3 5 C-2.67 4.01 -2.34 3.02 -2 2 C-1.34 2 -0.68 2 0 2 C0 1.34 0 0.68 0 0 Z " fill="#A03B14" transform="translate(681,1065)"/>
<path d="M0 0 C0.33 1.32 0.66 2.64 1 4 C0.360625 4.268125 -0.27875 4.53625 -0.9375 4.8125 C-3.33131686 5.88667752 -3.33131686 5.88667752 -4 9 C-5.32 8.67 -6.64 8.34 -8 8 C-5.36 5.36 -2.72 2.72 0 0 Z " fill="#5B210B" transform="translate(879,1055)"/>
<path d="M0 0 C0.66 0.33 1.32 0.66 2 1 C1.67 1.99 1.34 2.98 1 4 C0.34 4 -0.32 4 -1 4 C-1 4.66 -1 5.32 -1 6 C-1.66 6 -2.32 6 -3 6 C-3 6.66 -3 7.32 -3 8 C-4.32 8.33 -5.64 8.66 -7 9 C-7 8.34 -7 7.68 -7 7 C-6.34 7 -5.68 7 -5 7 C-5 6.34 -5 5.68 -5 5 C-4.34 5 -3.68 5 -3 5 C-2.67 4.01 -2.34 3.02 -2 2 C-1.34 2 -0.68 2 0 2 C0 1.34 0 0.68 0 0 Z " fill="#A03B14" transform="translate(690,1056)"/>
<path d="M0 0 C0.33 1.32 0.66 2.64 1 4 C0.360625 4.268125 -0.27875 4.53625 -0.9375 4.8125 C-3.33131686 5.88667752 -3.33131686 5.88667752 -4 9 C-5.32 8.67 -6.64 8.34 -8 8 C-5.36 5.36 -2.72 2.72 0 0 Z " fill="#5B210B" transform="translate(888,1046)"/>
<path d="M0 0 C0.66 0.33 1.32 0.66 2 1 C1.67 1.99 1.34 2.98 1 4 C0.34 4 -0.32 4 -1 4 C-1 4.66 -1 5.32 -1 6 C-1.66 6 -2.32 6 -3 6 C-3 6.66 -3 7.32 -3 8 C-4.32 8.33 -5.64 8.66 -7 9 C-7 8.34 -7 7.68 -7 7 C-6.34 7 -5.68 7 -5 7 C-5 6.34 -5 5.68 -5 5 C-4.34 5 -3.68 5 -3 5 C-2.67 4.01 -2.34 3.02 -2 2 C-1.34 2 -0.68 2 0 2 C0 1.34 0 0.68 0 0 Z " fill="#9F3B14" transform="translate(699,1047)"/>
<path d="M0 0 C0.66 0.33 1.32 0.66 2 1 C1.67 1.99 1.34 2.98 1 4 C0.34 4 -0.32 4 -1 4 C-1 4.66 -1 5.32 -1 6 C-1.66 6 -2.32 6 -3 6 C-3 6.66 -3 7.32 -3 8 C-4.32 8.33 -5.64 8.66 -7 9 C-7 8.34 -7 7.68 -7 7 C-6.34 7 -5.68 7 -5 7 C-5 6.34 -5 5.68 -5 5 C-4.34 5 -3.68 5 -3 5 C-2.67 4.01 -2.34 3.02 -2 2 C-1.34 2 -0.68 2 0 2 C0 1.34 0 0.68 0 0 Z " fill="#9C3A14" transform="translate(771,975)"/>
<path d="M0 0 C0.66 0.33 1.32 0.66 2 1 C1.67 1.99 1.34 2.98 1 4 C0.34 4 -0.32 4 -1 4 C-1 4.66 -1 5.32 -1 6 C-1.66 6 -2.32 6 -3 6 C-3 6.66 -3 7.32 -3 8 C-4.32 8.33 -5.64 8.66 -7 9 C-7 8.34 -7 7.68 -7 7 C-6.34 7 -5.68 7 -5 7 C-5 6.34 -5 5.68 -5 5 C-4.34 5 -3.68 5 -3 5 C-2.67 4.01 -2.34 3.02 -2 2 C-1.34 2 -0.68 2 0 2 C0 1.34 0 0.68 0 0 Z " fill="#9C3A14" transform="translate(780,966)"/>
<path d="M0 0 C0.66 0.33 1.32 0.66 2 1 C-0.51407619 5.28324091 -2.12314139 7.64531705 -7 9 C-7 8.34 -7 7.68 -7 7 C-6.34 7 -5.68 7 -5 7 C-5 6.34 -5 5.68 -5 5 C-4.34 5 -3.68 5 -3 5 C-3 4.34 -3 3.68 -3 3 C-2.34 3 -1.68 3 -1 3 C-0.67 2.01 -0.34 1.02 0 0 Z " fill="#FF9A72" transform="translate(841,905)"/>
<path d="M0 0 C0.66 0.33 1.32 0.66 2 1 C-0.51407619 5.28324091 -2.12314139 7.64531705 -7 9 C-7 8.34 -7 7.68 -7 7 C-6.34 7 -5.68 7 -5 7 C-5 6.34 -5 5.68 -5 5 C-4.34 5 -3.68 5 -3 5 C-3 4.34 -3 3.68 -3 3 C-2.34 3 -1.68 3 -1 3 C-0.67 2.01 -0.34 1.02 0 0 Z " fill="#FF9A72" transform="translate(850,896)"/>
<path d="M0 0 C0.66 0.33 1.32 0.66 2 1 C-0.51407619 5.28324091 -2.12314139 7.64531705 -7 9 C-7 8.34 -7 7.68 -7 7 C-6.34 7 -5.68 7 -5 7 C-5 6.34 -5 5.68 -5 5 C-4.34 5 -3.68 5 -3 5 C-3 4.34 -3 3.68 -3 3 C-2.34 3 -1.68 3 -1 3 C-0.67 2.01 -0.34 1.02 0 0 Z " fill="#FF9A72" transform="translate(859,887)"/>
<path d="M0 0 C0.66 0.33 1.32 0.66 2 1 C-0.51407619 5.28324091 -2.12314139 7.64531705 -7 9 C-7 8.34 -7 7.68 -7 7 C-6.34 7 -5.68 7 -5 7 C-5 6.34 -5 5.68 -5 5 C-4.34 5 -3.68 5 -3 5 C-3 4.34 -3 3.68 -3 3 C-2.34 3 -1.68 3 -1 3 C-0.67 2.01 -0.34 1.02 0 0 Z " fill="#FF9A72" transform="translate(868,878)"/>
<path d="M0 0 C0.66 0.33 1.32 0.66 2 1 C-0.51407619 5.28324091 -2.12314139 7.64531705 -7 9 C-7 8.34 -7 7.68 -7 7 C-6.34 7 -5.68 7 -5 7 C-5 6.34 -5 5.68 -5 5 C-4.34 5 -3.68 5 -3 5 C-3 4.34 -3 3.68 -3 3 C-2.34 3 -1.68 3 -1 3 C-0.67 2.01 -0.34 1.02 0 0 Z " fill="#FF9B72" transform="translate(877,869)"/>
<path d="M0 0 C0.66 0.33 1.32 0.66 2 1 C-0.51407619 5.28324091 -2.12314139 7.64531705 -7 9 C-7 8.34 -7 7.68 -7 7 C-6.34 7 -5.68 7 -5 7 C-5 6.34 -5 5.68 -5 5 C-4.34 5 -3.68 5 -3 5 C-3 4.34 -3 3.68 -3 3 C-2.34 3 -1.68 3 -1 3 C-0.67 2.01 -0.34 1.02 0 0 Z " fill="#FF9A72" transform="translate(886,860)"/>
<path d="M0 0 C0.33 1.32 0.66 2.64 1 4 C0.01 4 -0.98 4 -2 4 C-2 4.66 -2 5.32 -2 6 C-2.66 6 -3.32 6 -4 6 C-4 6.99 -4 7.98 -4 9 C-5.32 8.67 -6.64 8.34 -8 8 C-6.625 6.5 -6.625 6.5 -5 5 C-4.34 5 -3.68 5 -3 5 C-2.690625 4.360625 -2.38125 3.72125 -2.0625 3.0625 C-1 1 -1 1 0 0 Z " fill="#5F230C" transform="translate(1077,857)"/>
<path d="M0 0 C0.33 1.32 0.66 2.64 1 4 C0.01 4 -0.98 4 -2 4 C-2 4.66 -2 5.32 -2 6 C-2.66 6 -3.32 6 -4 6 C-4 6.99 -4 7.98 -4 9 C-5.32 8.67 -6.64 8.34 -8 8 C-6.625 6.5 -6.625 6.5 -5 5 C-4.34 5 -3.68 5 -3 5 C-2.690625 4.360625 -2.38125 3.72125 -2.0625 3.0625 C-1 1 -1 1 0 0 Z " fill="#5F230C" transform="translate(1086,848)"/>
<path d="M0 0 C0.33 1.32 0.66 2.64 1 4 C0.01 4 -0.98 4 -2 4 C-2 4.66 -2 5.32 -2 6 C-2.66 6 -3.32 6 -4 6 C-4 6.99 -4 7.98 -4 9 C-5.32 8.67 -6.64 8.34 -8 8 C-6.625 6.5 -6.625 6.5 -5 5 C-4.34 5 -3.68 5 -3 5 C-2.690625 4.360625 -2.38125 3.72125 -2.0625 3.0625 C-1 1 -1 1 0 0 Z " fill="#60230D" transform="translate(1095,839)"/>
<path d="M0 0 C0.66 0.33 1.32 0.66 2 1 C1.34 2.32 0.68 3.64 0 5 C-0.66 5 -1.32 5 -2 5 C-2.33 5.99 -2.66 6.98 -3 8 C-5.0625 8.6875 -5.0625 8.6875 -7 9 C-7 8.34 -7 7.68 -7 7 C-6.34 7 -5.68 7 -5 7 C-5 6.34 -5 5.68 -5 5 C-4.34 5 -3.68 5 -3 5 C-2.690625 4.360625 -2.38125 3.72125 -2.0625 3.0625 C-1 1 -1 1 0 0 Z " fill="#943613" transform="translate(967,779)"/>
<path d="M0 0 C0.66 0.33 1.32 0.66 2 1 C1.34 2.32 0.68 3.64 0 5 C-0.66 5 -1.32 5 -2 5 C-2.33 5.99 -2.66 6.98 -3 8 C-5.0625 8.6875 -5.0625 8.6875 -7 9 C-7 8.34 -7 7.68 -7 7 C-6.34 7 -5.68 7 -5 7 C-5 6.34 -5 5.68 -5 5 C-4.34 5 -3.68 5 -3 5 C-2.690625 4.360625 -2.38125 3.72125 -2.0625 3.0625 C-1 1 -1 1 0 0 Z " fill="#933613" transform="translate(985,761)"/>
<path d="M0 0 C2 1 4 2 6 3 C5.67 3.66 5.34 4.32 5 5 C4.443125 4.814375 3.88625 4.62875 3.3125 4.4375 C0.600867 3.92448835 -1.34371039 4.3359276 -4 5 C-2.68 3.35 -1.36 1.7 0 0 Z " fill="#8E8E8E" transform="translate(687,641)"/>
<path d="M0 0 C0.66 0.33 1.32 0.66 2 1 C0.86560182 4.40319453 -0.30301316 5.68829699 -3 8 C-5.25 8.75 -5.25 8.75 -7 9 C-7 8.34 -7 7.68 -7 7 C-6.34 7 -5.68 7 -5 7 C-5 6.34 -5 5.68 -5 5 C-4.34 5 -3.68 5 -3 5 C-2.67 4.01 -2.34 3.02 -2 2 C-1.34 2 -0.68 2 0 2 C0 1.34 0 0.68 0 0 Z " fill="#9B3A14" transform="translate(708,1038)"/>
<path d="M0 0 C0.66 0.33 1.32 0.66 2 1 C0.86560182 4.40319453 -0.30301316 5.68829699 -3 8 C-5.25 8.75 -5.25 8.75 -7 9 C-7 8.34 -7 7.68 -7 7 C-6.34 7 -5.68 7 -5 7 C-5 6.34 -5 5.68 -5 5 C-4.34 5 -3.68 5 -3 5 C-2.67 4.01 -2.34 3.02 -2 2 C-1.34 2 -0.68 2 0 2 C0 1.34 0 0.68 0 0 Z " fill="#9B3A14" transform="translate(717,1029)"/>
<path d="M0 0 C0.66 0.33 1.32 0.66 2 1 C0.86560182 4.40319453 -0.30301316 5.68829699 -3 8 C-5.25 8.75 -5.25 8.75 -7 9 C-7 8.34 -7 7.68 -7 7 C-6.34 7 -5.68 7 -5 7 C-5 6.34 -5 5.68 -5 5 C-4.34 5 -3.68 5 -3 5 C-2.67 4.01 -2.34 3.02 -2 2 C-1.34 2 -0.68 2 0 2 C0 1.34 0 0.68 0 0 Z " fill="#9A3914" transform="translate(726,1020)"/>
<path d="M0 0 C0.66 0.33 1.32 0.66 2 1 C0.86560182 4.40319453 -0.30301316 5.68829699 -3 8 C-5.25 8.75 -5.25 8.75 -7 9 C-7 8.34 -7 7.68 -7 7 C-6.34 7 -5.68 7 -5 7 C-5 6.34 -5 5.68 -5 5 C-4.34 5 -3.68 5 -3 5 C-2.67 4.01 -2.34 3.02 -2 2 C-1.34 2 -0.68 2 0 2 C0 1.34 0 0.68 0 0 Z " fill="#9A3914" transform="translate(735,1011)"/>
<path d="M0 0 C0.66 0.33 1.32 0.66 2 1 C0.86560182 4.40319453 -0.30301316 5.68829699 -3 8 C-5.25 8.75 -5.25 8.75 -7 9 C-7 8.34 -7 7.68 -7 7 C-6.34 7 -5.68 7 -5 7 C-5 6.34 -5 5.68 -5 5 C-4.34 5 -3.68 5 -3 5 C-2.67 4.01 -2.34 3.02 -2 2 C-1.34 2 -0.68 2 0 2 C0 1.34 0 0.68 0 0 Z " fill="#993914" transform="translate(744,1002)"/>
<path d="M0 0 C0.66 0.33 1.32 0.66 2 1 C0.86560182 4.40319453 -0.30301316 5.68829699 -3 8 C-5.25 8.75 -5.25 8.75 -7 9 C-7 8.34 -7 7.68 -7 7 C-6.34 7 -5.68 7 -5 7 C-5 6.34 -5 5.68 -5 5 C-4.34 5 -3.68 5 -3 5 C-2.67 4.01 -2.34 3.02 -2 2 C-1.34 2 -0.68 2 0 2 C0 1.34 0 0.68 0 0 Z " fill="#993913" transform="translate(753,993)"/>
<path d="M0 0 C0.66 0.33 1.32 0.66 2 1 C0.86560182 4.40319453 -0.30301316 5.68829699 -3 8 C-5.25 8.75 -5.25 8.75 -7 9 C-7 8.34 -7 7.68 -7 7 C-6.34 7 -5.68 7 -5 7 C-5 6.34 -5 5.68 -5 5 C-4.34 5 -3.68 5 -3 5 C-2.67 4.01 -2.34 3.02 -2 2 C-1.34 2 -0.68 2 0 2 C0 1.34 0 0.68 0 0 Z " fill="#993913" transform="translate(762,984)"/>
<path d="M0 0 C0.66 0.33 1.32 0.66 2 1 C1.34 2.32 0.68 3.64 0 5 C-0.66 5 -1.32 5 -2 5 C-2.33 5.99 -2.66 6.98 -3 8 C-5.0625 8.6875 -5.0625 8.6875 -7 9 C-7 8.34 -7 7.68 -7 7 C-6.34 7 -5.68 7 -5 7 C-5 6.34 -5 5.68 -5 5 C-4.34 5 -3.68 5 -3 5 C-3 4.34 -3 3.68 -3 3 C-2.34 3 -1.68 3 -1 3 C-0.67 2.01 -0.34 1.02 0 0 Z " fill="#973813" transform="translate(976,770)"/>
<path d="M0 0 C0.66 0.33 1.32 0.66 2 1 C1.34 2.32 0.68 3.64 0 5 C-0.66 5 -1.32 5 -2 5 C-2.33 5.99 -2.66 6.98 -3 8 C-5.0625 8.6875 -5.0625 8.6875 -7 9 C-7 8.34 -7 7.68 -7 7 C-6.34 7 -5.68 7 -5 7 C-5 6.34 -5 5.68 -5 5 C-4.34 5 -3.68 5 -3 5 C-3 4.34 -3 3.68 -3 3 C-2.34 3 -1.68 3 -1 3 C-0.67 2.01 -0.34 1.02 0 0 Z " fill="#963713" transform="translate(994,752)"/>
<path d="M0 0 C0.66 0.33 1.32 0.66 2 1 C1.34 2.32 0.68 3.64 0 5 C-0.66 5 -1.32 5 -2 5 C-2.33 5.99 -2.66 6.98 -3 8 C-5.0625 8.6875 -5.0625 8.6875 -7 9 C-7 8.34 -7 7.68 -7 7 C-6.34 7 -5.68 7 -5 7 C-5 6.34 -5 5.68 -5 5 C-4.34 5 -3.68 5 -3 5 C-3 4.34 -3 3.68 -3 3 C-2.34 3 -1.68 3 -1 3 C-0.67 2.01 -0.34 1.02 0 0 Z " fill="#963713" transform="translate(1003,743)"/>
<path d="M0 0 C0.66 0.33 1.32 0.66 2 1 C1.34 2.32 0.68 3.64 0 5 C-0.66 5 -1.32 5 -2 5 C-2.33 5.99 -2.66 6.98 -3 8 C-5.0625 8.6875 -5.0625 8.6875 -7 9 C-7 8.34 -7 7.68 -7 7 C-6.34 7 -5.68 7 -5 7 C-5 6.34 -5 5.68 -5 5 C-4.34 5 -3.68 5 -3 5 C-3 4.34 -3 3.68 -3 3 C-2.34 3 -1.68 3 -1 3 C-0.67 2.01 -0.34 1.02 0 0 Z " fill="#953713" transform="translate(1012,734)"/>
<path d="M0 0 C0.66 0 1.32 0 2 0 C1.8125 1.8125 1.8125 1.8125 1 4 C-1.5625 5.75 -1.5625 5.75 -4 7 C-4.33 6.34 -4.66 5.68 -5 5 C-4.34 5 -3.68 5 -3 5 C-3 4.34 -3 3.68 -3 3 C-2.34 3 -1.68 3 -1 3 C-0.67 2.01 -0.34 1.02 0 0 Z " fill="#FF966C" transform="translate(893,853)"/>
<path d="M0 0 C0.33 0.99 0.66 1.98 1 3 C-0.3125 4.5 -0.3125 4.5 -2 6 C-2.99 6 -3.98 6 -5 6 C-5.33 6.99 -5.66 7.98 -6 9 C-6.66 8.67 -7.32 8.34 -8 8 C-6 5 -6 5 -3 4 C-2.67 3.01 -2.34 2.02 -2 1 C-1.34 0.67 -0.68 0.34 0 0 Z " fill="#AA3F16" transform="translate(1099,648)"/>
<path d="M0 0 C0.33 1.32 0.66 2.64 1 4 C0.34 4 -0.32 4 -1 4 C-1.33 4.99 -1.66 5.98 -2 7 C-2.99 7 -3.98 7 -5 7 C-5 6.34 -5 5.68 -5 5 C-4.34 5 -3.68 5 -3 5 C-2.5359375 4.0409375 -2.5359375 4.0409375 -2.0625 3.0625 C-1 1 -1 1 0 0 Z " fill="#531F0B" transform="translate(996,938)"/>
</svg>
